<svg width="600" height="249" viewBox="0 0 600 249" fill="none" xmlns="http://www.w3.org/2000/svg">
<path d="M544.48 118.15H55.48C55.3317 118.19 55.1761 118.196 55.0253 118.166C54.8745 118.137 54.7325 118.073 54.6104 117.979C54.4883 117.886 54.3894 117.766 54.3213 117.628C54.2532 117.49 54.2177 117.339 54.2177 117.185C54.2177 117.031 54.2532 116.88 54.3213 116.742C54.3894 116.604 54.4883 116.484 54.6104 116.391C54.7325 116.297 54.8745 116.233 55.0253 116.204C55.1761 116.174 55.3317 116.18 55.48 116.22H544.48C544.628 116.18 544.784 116.174 544.935 116.204C545.086 116.233 545.228 116.297 545.35 116.391C545.472 116.484 545.571 116.604 545.639 116.742C545.707 116.88 545.742 117.031 545.742 117.185C545.742 117.339 545.707 117.49 545.639 117.628C545.571 117.766 545.472 117.886 545.35 117.979C545.228 118.073 545.086 118.137 544.935 118.166C544.784 118.196 544.628 118.19 544.48 118.15Z" fill="#5461F2"/>
<path d="M454.08 105.24C453.815 105.24 453.56 105.135 453.373 104.947C453.185 104.76 453.08 104.505 453.08 104.24V58.8C453.138 58.5882 453.263 58.4012 453.438 58.2678C453.612 58.1345 453.825 58.0623 454.045 58.0623C454.265 58.0623 454.478 58.1345 454.652 58.2678C454.827 58.4012 454.952 58.5882 455.01 58.8V104.27C455.003 104.518 454.904 104.755 454.732 104.935C454.56 105.114 454.328 105.223 454.08 105.24Z" fill="#5461F2"/>
<path d="M449.36 66.3499C449.19 66.3464 449.023 66.2996 448.876 66.2139C448.729 66.1281 448.607 66.0063 448.52 65.8599C448.401 65.6353 448.372 65.3739 448.439 65.1287C448.506 64.8835 448.664 64.673 448.88 64.5399C451.059 63.1503 452.599 60.953 453.16 58.4299C453.209 58.2127 453.329 58.018 453.501 57.8767C453.673 57.7354 453.887 57.6556 454.11 57.6499C454.333 57.6556 454.547 57.7354 454.719 57.8767C454.891 58.018 455.011 58.2127 455.06 58.4299C455.292 59.6699 455.772 60.8502 456.472 61.9001C457.171 62.95 458.075 63.8479 459.13 64.5399C459.297 64.6956 459.406 64.904 459.439 65.1303C459.471 65.3566 459.425 65.5872 459.308 65.7836C459.191 65.9801 459.011 66.1305 458.796 66.2099C458.582 66.2893 458.347 66.2928 458.13 66.2199C456.365 65.0953 454.952 63.4981 454.05 61.6099C453.067 63.4961 451.6 65.087 449.8 66.2199C449.666 66.2989 449.515 66.3436 449.36 66.3499Z" fill="#5461F2"/>
<path d="M449.36 72.91C449.16 72.8875 448.971 72.8052 448.819 72.6739C448.667 72.5426 448.557 72.3683 448.505 72.1739C448.453 71.9794 448.461 71.7739 448.528 71.5841C448.595 71.3942 448.718 71.229 448.88 71.11C451.057 69.718 452.596 67.5217 453.16 65C453.207 64.7809 453.326 64.5839 453.498 64.4407C453.671 64.2974 453.886 64.2162 454.11 64.21C454.334 64.2162 454.549 64.2974 454.722 64.4407C454.894 64.5839 455.013 64.7809 455.06 65C455.294 66.2392 455.775 67.4186 456.475 68.4682C457.174 69.5179 458.077 70.4162 459.13 71.11C459.297 71.2657 459.406 71.474 459.439 71.7003C459.471 71.9266 459.425 72.1572 459.308 72.3537C459.191 72.5501 459.011 72.7006 458.796 72.78C458.582 72.8593 458.347 72.8629 458.13 72.79C456.368 71.6621 454.955 70.0658 454.05 68.18C453.067 70.0661 451.6 71.6571 449.8 72.79C449.665 72.8633 449.514 72.9044 449.36 72.91Z" fill="#5461F2"/>
<path d="M449.36 79.8599C449.19 79.8564 449.023 79.8096 448.876 79.7239C448.729 79.6381 448.607 79.5163 448.52 79.3699C448.401 79.1453 448.372 78.8839 448.439 78.6387C448.506 78.3935 448.664 78.183 448.88 78.0499C451.056 76.6571 452.595 74.4612 453.16 71.9399C453.207 71.7208 453.326 71.5239 453.498 71.3806C453.671 71.2374 453.886 71.1561 454.11 71.1499C454.334 71.1561 454.549 71.2374 454.722 71.3806C454.894 71.5239 455.013 71.7208 455.06 71.9399C455.291 73.1804 455.77 74.3614 456.47 75.4116C457.169 76.4617 458.074 77.3592 459.13 78.0499C459.297 78.2056 459.406 78.414 459.439 78.6403C459.471 78.8666 459.425 79.0972 459.308 79.2936C459.191 79.4901 459.011 79.6405 458.796 79.7199C458.582 79.7993 458.347 79.8028 458.13 79.7299C456.368 78.6021 454.955 77.0057 454.05 75.1199C453.067 77.0061 451.6 78.597 449.8 79.7299C449.665 79.8068 449.515 79.8513 449.36 79.8599Z" fill="#5461F2"/>
<path d="M449.36 86.42C449.16 86.3975 448.971 86.3152 448.819 86.1839C448.667 86.0526 448.557 85.8783 448.505 85.6839C448.453 85.4894 448.461 85.2839 448.528 85.0941C448.595 84.9043 448.718 84.739 448.88 84.62C451.054 83.2248 452.592 81.0299 453.16 78.51C453.207 78.2909 453.326 78.094 453.498 77.9507C453.671 77.8074 453.886 77.7262 454.11 77.72C454.334 77.7262 454.549 77.8074 454.722 77.9507C454.894 78.094 455.013 78.2909 455.06 78.51C455.291 79.7489 455.771 80.9282 456.471 81.9766C457.17 83.025 458.075 83.9208 459.13 84.61C459.346 84.7431 459.504 84.9536 459.571 85.1988C459.638 85.444 459.609 85.7054 459.49 85.93C459.357 86.1465 459.146 86.3042 458.901 86.371C458.656 86.4379 458.395 86.4089 458.17 86.29C456.404 85.171 454.99 83.5766 454.09 81.69C453.107 83.5761 451.64 85.1671 449.84 86.3C449.693 86.3795 449.527 86.4208 449.36 86.42Z" fill="#5461F2"/>
<path d="M161.31 93.4701C161.045 93.4701 160.79 93.3647 160.603 93.1772C160.415 92.9896 160.31 92.7353 160.31 92.4701V47.0001C160.364 46.7838 160.489 46.5919 160.665 46.4548C160.841 46.3176 161.057 46.2432 161.28 46.2432C161.503 46.2432 161.719 46.3176 161.895 46.4548C162.071 46.5919 162.196 46.7838 162.25 47.0001V92.5101C162.241 92.7582 162.139 92.994 161.965 93.1714C161.791 93.3489 161.558 93.4553 161.31 93.4701Z" fill="#5461F2"/>
<path d="M156.58 54.5799C156.41 54.5765 156.243 54.5297 156.096 54.4439C155.949 54.3582 155.827 54.2363 155.74 54.0899C155.624 53.8664 155.597 53.6073 155.663 53.3644C155.73 53.1216 155.886 52.9128 156.1 52.7799C158.28 51.3843 159.822 49.1852 160.39 46.6599C160.441 46.4344 160.568 46.2333 160.751 46.0911C160.933 45.9489 161.159 45.8743 161.39 45.8799C161.613 45.8856 161.827 45.9654 161.999 46.1067C162.171 46.248 162.291 46.4427 162.34 46.6599C162.574 47.8981 163.053 49.0769 163.751 50.1264C164.448 51.1759 165.349 52.0748 166.4 52.7699C166.556 52.9243 166.657 53.1258 166.687 53.3432C166.717 53.5607 166.675 53.782 166.567 53.9731C166.459 54.1642 166.291 54.3144 166.089 54.4006C165.887 54.4868 165.663 54.5041 165.45 54.4499C163.679 53.3329 162.263 51.7336 161.37 49.8399C160.387 51.7293 158.916 53.3211 157.11 54.4499C156.951 54.5465 156.766 54.5918 156.58 54.5799Z" fill="#5461F2"/>
<path d="M156.58 61.15C156.377 61.1298 156.186 61.0482 156.031 60.9162C155.876 60.7842 155.765 60.608 155.713 60.4113C155.661 60.2146 155.67 60.0066 155.739 59.8152C155.808 59.6237 155.934 59.458 156.1 59.34C157.181 58.6533 158.117 57.7603 158.853 56.7119C159.589 55.6635 160.111 54.4803 160.39 53.23C160.441 53.0044 160.568 52.8034 160.751 52.6612C160.933 52.519 161.159 52.4444 161.39 52.45C161.613 52.4557 161.827 52.5355 161.999 52.6768C162.171 52.8181 162.291 53.0128 162.34 53.23C162.574 54.4682 163.053 55.647 163.751 56.6965C164.448 57.746 165.349 58.6449 166.4 59.34C166.556 59.4981 166.655 59.7038 166.681 59.9244C166.707 60.145 166.659 60.3681 166.545 60.5585C166.43 60.7488 166.255 60.8955 166.048 60.9755C165.841 61.0554 165.613 61.0641 165.4 61C163.629 59.883 162.214 58.2837 161.32 56.39C160.337 58.2794 158.866 59.8711 157.06 61C156.917 61.0941 156.751 61.1461 156.58 61.15Z" fill="#5461F2"/>
<path d="M156.58 68.0899C156.377 68.0697 156.186 67.9881 156.031 67.8561C155.876 67.7241 155.765 67.548 155.713 67.3512C155.661 67.1545 155.67 66.9465 155.739 66.7551C155.808 66.5637 155.934 66.3979 156.1 66.2799C158.281 64.8899 159.823 62.6933 160.39 60.1699C160.441 59.9444 160.568 59.7434 160.751 59.6011C160.933 59.4589 161.159 59.3843 161.39 59.3899C161.613 59.3956 161.827 59.4755 161.999 59.6168C162.171 59.758 162.291 59.9527 162.34 60.1699C162.57 61.4095 163.048 62.5897 163.746 63.6398C164.443 64.6898 165.346 65.5878 166.4 66.2799C166.6 66.4256 166.739 66.6402 166.79 66.8825C166.841 67.1247 166.801 67.3773 166.676 67.5913C166.552 67.8053 166.353 67.9656 166.117 68.0411C165.881 68.1166 165.626 68.1019 165.4 67.9999C163.629 66.8829 162.214 65.2836 161.32 63.3899C160.337 65.2793 158.866 66.8711 157.06 67.9999C156.911 68.0731 156.745 68.1042 156.58 68.0899Z" fill="#5461F2"/>
<path d="M156.58 74.66C156.377 74.6398 156.186 74.5582 156.031 74.4262C155.876 74.2942 155.765 74.1181 155.713 73.9213C155.661 73.7246 155.67 73.5166 155.739 73.3252C155.808 73.1337 155.934 72.968 156.1 72.85C158.281 71.4599 159.823 69.2634 160.39 66.74C160.441 66.5144 160.568 66.3134 160.751 66.1712C160.933 66.029 161.159 65.9544 161.39 65.96C161.613 65.9657 161.827 66.0455 161.999 66.1868C162.171 66.3281 162.291 66.5228 162.34 66.74C162.575 67.9777 163.056 69.1558 163.753 70.2051C164.45 71.2543 165.35 72.1536 166.4 72.85C166.556 73.0044 166.657 73.2059 166.687 73.4233C166.717 73.6407 166.675 73.8621 166.567 74.0532C166.459 74.2442 166.291 74.3945 166.089 74.4807C165.887 74.5668 165.663 74.5842 165.45 74.53C163.685 73.4054 162.272 71.8082 161.37 69.92C160.387 71.8094 158.916 73.4012 157.11 74.53C156.949 74.6216 156.765 74.6667 156.58 74.66Z" fill="#5461F2"/>
<path d="M92.23 117.33C91.9648 117.33 91.7104 117.225 91.5229 117.037C91.3354 116.85 91.23 116.595 91.23 116.33V70.8999C91.1897 70.7516 91.1841 70.596 91.2137 70.4452C91.2433 70.2944 91.3072 70.1524 91.4006 70.0303C91.4939 69.9082 91.6141 69.8093 91.7519 69.7412C91.8897 69.6731 92.0413 69.6377 92.195 69.6377C92.3487 69.6377 92.5003 69.6731 92.6381 69.7412C92.7759 69.8093 92.8961 69.9082 92.9894 70.0303C93.0828 70.1524 93.1467 70.2944 93.1763 70.4452C93.2059 70.596 93.2003 70.7516 93.16 70.8999V116.37C93.1507 116.617 93.0506 116.851 92.8789 117.028C92.7073 117.205 92.4761 117.313 92.23 117.33Z" fill="#5461F2"/>
<path d="M87.5 78.44C87.3308 78.4376 87.165 78.3923 87.0181 78.3084C86.8712 78.2244 86.748 78.1046 86.66 77.96C86.5392 77.7378 86.5072 77.4781 86.5703 77.2331C86.6333 76.9882 86.7869 76.7763 87 76.64C89.1748 75.2436 90.7151 73.0498 91.29 70.53C91.3365 70.3126 91.4542 70.1169 91.6245 69.9738C91.7947 69.8307 92.0078 69.7485 92.23 69.74C92.4612 69.7344 92.6871 69.809 92.8695 69.9512C93.0518 70.0935 93.1792 70.2945 93.23 70.52C93.4589 71.7612 93.9377 72.9428 94.6373 73.9932C95.337 75.0435 96.2429 75.9406 97.3 76.63C97.5247 76.7686 97.6855 76.9904 97.7473 77.247C97.8091 77.5037 97.767 77.7744 97.63 78C97.4969 78.2165 97.2864 78.3743 97.0412 78.4411C96.796 78.508 96.5346 78.479 96.31 78.36C94.5426 77.2416 93.1308 75.6424 92.24 73.75C91.2552 75.6186 89.7921 77.1922 88 78.31C87.8487 78.3992 87.6755 78.4443 87.5 78.44Z" fill="#5461F2"/>
<path d="M87.5 85.0001C87.3 84.9776 87.1115 84.8954 86.959 84.7641C86.8065 84.6327 86.6972 84.4585 86.6453 84.264C86.5935 84.0696 86.6015 83.864 86.6683 83.6742C86.7352 83.4844 86.8577 83.3191 87.02 83.2001C89.1969 81.8013 90.7375 79.6036 91.31 77.0801C91.3585 76.8645 91.477 76.671 91.6471 76.5299C91.8171 76.3888 92.0291 76.308 92.25 76.3001C92.4812 76.2945 92.7071 76.3691 92.8895 76.5113C93.0718 76.6535 93.1992 76.8545 93.25 77.0801C93.4788 78.3212 93.9576 79.5029 94.6573 80.5532C95.357 81.6036 96.2629 82.5007 97.32 83.1901C97.4874 83.3458 97.5964 83.5542 97.6288 83.7805C97.6612 84.0068 97.6152 84.2374 97.4982 84.4338C97.3813 84.6303 97.2006 84.7807 96.9862 84.8601C96.7718 84.9395 96.5367 84.943 96.32 84.8701C94.5526 83.7516 93.1408 82.1525 92.25 80.2601C91.2712 82.1519 89.8037 83.7471 88 84.8801C87.8477 84.9658 87.6746 85.0073 87.5 85.0001Z" fill="#5461F2"/>
<path d="M87.5 92C87.3 91.9776 87.1115 91.8953 86.959 91.764C86.8065 91.6326 86.6972 91.4584 86.6453 91.2639C86.5935 91.0695 86.6015 90.8639 86.6683 90.6741C86.7352 90.4843 86.8577 90.3191 87.02 90.2C89.2141 88.7825 90.7568 86.553 91.31 84C91.3565 83.7826 91.4742 83.5868 91.6445 83.4438C91.8147 83.3007 92.0278 83.2184 92.25 83.21C92.4812 83.2044 92.7071 83.279 92.8895 83.4212C93.0718 83.5634 93.1992 83.7644 93.25 83.99C93.4788 85.2311 93.9576 86.4128 94.6573 87.4631C95.357 88.5135 96.2629 89.4106 97.32 90.1C97.4874 90.2557 97.5964 90.4641 97.6288 90.6904C97.6612 90.9167 97.6152 91.1473 97.4982 91.3437C97.3813 91.5402 97.2006 91.6906 96.9862 91.77C96.7718 91.8494 96.5367 91.8529 96.32 91.78C94.5526 90.6615 93.1408 89.0624 92.25 87.17C91.2755 89.0728 89.8077 90.6788 88 91.82C87.8541 91.9269 87.6805 91.9894 87.5 92Z" fill="#5461F2"/>
<path d="M87.5 98.5201C87.2959 98.5034 87.1018 98.4243 86.944 98.2937C86.7863 98.1631 86.6724 97.9872 86.6179 97.7897C86.5633 97.5923 86.5707 97.3829 86.6391 97.1898C86.7074 96.9967 86.8334 96.8293 87 96.7101C89.1771 95.3161 90.7181 93.1213 91.29 90.6001C91.3385 90.3845 91.457 90.191 91.6271 90.0499C91.7971 89.9088 92.0092 89.828 92.23 89.8201C92.4612 89.8145 92.6871 89.8891 92.8695 90.0313C93.0518 90.1735 93.1792 90.3745 93.23 90.6001C93.4605 91.8407 93.94 93.0216 94.6395 94.0718C95.339 95.1219 96.2441 96.0194 97.3 96.7101C97.4414 96.7577 97.5704 96.8363 97.6775 96.9403C97.7846 97.0442 97.867 97.1707 97.9188 97.3106C97.9706 97.4506 97.9905 97.6003 97.9769 97.7489C97.9633 97.8975 97.9167 98.0412 97.8404 98.1694C97.764 98.2976 97.66 98.4071 97.5358 98.4899C97.4117 98.5727 97.2706 98.6266 97.1229 98.6478C96.9752 98.669 96.8246 98.6568 96.6823 98.6122C96.5399 98.5676 96.4093 98.4917 96.3 98.3901C94.5327 97.2716 93.1208 95.6725 92.23 93.7801C91.2552 95.6657 89.795 97.2571 88 98.3901C87.8487 98.4793 87.6755 98.5243 87.5 98.5201Z" fill="#5461F2"/>
<path d="M76.91 118.32C76.6448 118.32 76.3904 118.215 76.2029 118.027C76.0154 117.84 75.91 117.585 75.91 117.32V75.5C75.9676 75.2881 76.0932 75.1011 76.2676 74.9678C76.442 74.8344 76.6555 74.7622 76.875 74.7622C77.0945 74.7622 77.308 74.8344 77.4824 74.9678C77.6568 75.1011 77.7824 75.2881 77.84 75.5V117.35C77.8331 117.598 77.7341 117.835 77.5622 118.014C77.3903 118.194 77.1578 118.303 76.91 118.32Z" fill="#5461F2"/>
<path d="M72.19 83.0499C72.0199 83.0465 71.8534 82.9996 71.7064 82.9139C71.5594 82.8281 71.4367 82.7063 71.35 82.5599C71.231 82.3353 71.202 82.0739 71.2689 81.8287C71.3358 81.5835 71.4935 81.373 71.71 81.2399C73.8901 79.849 75.4322 77.6528 76 75.1299C76.0508 74.9043 76.1782 74.7033 76.3605 74.5611C76.5429 74.4189 76.7688 74.3443 77 74.3499C77.2312 74.3443 77.4571 74.4189 77.6395 74.5611C77.8218 74.7033 77.9492 74.9043 78 75.1299C78.2221 76.3648 78.6908 77.5423 79.3781 78.5921C80.0653 79.6418 80.957 80.5424 82 81.2399C82.1414 81.2875 82.2704 81.3661 82.3775 81.47C82.4845 81.574 82.567 81.7005 82.6188 81.8404C82.6706 81.9804 82.6905 82.1301 82.6769 82.2787C82.6633 82.4273 82.6167 82.571 82.5404 82.6992C82.464 82.8274 82.36 82.9369 82.2358 83.0197C82.1117 83.1025 81.9706 83.1564 81.8229 83.1776C81.6752 83.1987 81.5246 83.1866 81.3823 83.142C81.2399 83.0974 81.1092 83.0215 81 82.9199C79.2325 81.7987 77.8181 80.2005 76.92 78.3099C75.9369 80.1961 74.4702 81.787 72.67 82.9199C72.5235 83.003 72.3584 83.0477 72.19 83.0499Z" fill="#5461F2"/>
<path d="M72.19 89.6199C72.0199 89.6165 71.8534 89.5696 71.7064 89.4839C71.5594 89.3982 71.4367 89.2763 71.35 89.1299C71.231 88.9053 71.202 88.6439 71.2689 88.3987C71.3358 88.1535 71.4935 87.943 71.71 87.8099C73.8901 86.419 75.4322 84.2228 76 81.6999C76.0488 81.4725 76.1753 81.2692 76.3578 81.125C76.5404 80.9808 76.7674 80.9047 77 80.9099C77.2325 80.9047 77.4596 80.9808 77.6421 81.125C77.8247 81.2692 77.9512 81.4725 78 81.6999C78.2259 82.9335 78.6962 84.1095 79.3831 85.1588C80.07 86.208 80.9597 87.1094 82 87.8099C82.1674 87.9656 82.2764 88.174 82.3088 88.4003C82.3412 88.6266 82.2952 88.8572 82.1782 89.0536C82.0613 89.2501 81.8806 89.4005 81.6662 89.4799C81.4518 89.5593 81.2167 89.5628 81 89.4899C79.2382 88.3621 77.8254 86.7657 76.92 84.8799C75.9369 86.7661 74.4702 88.3571 72.67 89.4899C72.5223 89.57 72.3579 89.6145 72.19 89.6199Z" fill="#5461F2"/>
<path d="M72.19 96.5599C72.0199 96.5565 71.8534 96.5097 71.7064 96.4239C71.5594 96.3382 71.4367 96.2163 71.35 96.0699C71.231 95.8453 71.202 95.5839 71.2689 95.3387C71.3358 95.0935 71.4935 94.883 71.71 94.7499C73.8901 93.359 75.4322 91.1628 76 88.6399C76.0508 88.4143 76.1782 88.2133 76.3605 88.0711C76.5429 87.9289 76.7688 87.8543 77 87.8599C77.2312 87.8543 77.4571 87.9289 77.6395 88.0711C77.8218 88.2133 77.9492 88.4143 78 88.6399C78.2259 89.8735 78.6962 91.0495 79.3831 92.0988C80.07 93.148 80.9597 94.0494 82 94.7499C82.1674 94.9056 82.2764 95.114 82.3088 95.3403C82.3412 95.5666 82.2952 95.7972 82.1782 95.9936C82.0613 96.1901 81.8806 96.3405 81.6662 96.4199C81.4518 96.4993 81.2167 96.5028 81 96.4299C79.2354 95.3053 77.8218 93.7081 76.92 91.8199C75.9369 93.7061 74.4702 95.2971 72.67 96.4299C72.5235 96.513 72.3584 96.5577 72.19 96.5599Z" fill="#5461F2"/>
<path d="M72.19 103.12C71.99 103.097 71.8015 103.015 71.649 102.884C71.4965 102.753 71.3872 102.578 71.3353 102.384C71.2835 102.189 71.2915 101.984 71.3584 101.794C71.4252 101.604 71.5477 101.439 71.71 101.32C73.8901 99.9291 75.4322 97.7328 76 95.2099C76.0488 94.9825 76.1753 94.7792 76.3578 94.635C76.5404 94.4908 76.7674 94.4148 77 94.4199C77.2325 94.4148 77.4596 94.4908 77.6421 94.635C77.8247 94.7792 77.9512 94.9825 78 95.2099C78.2259 96.4435 78.6962 97.6195 79.3831 98.6688C80.07 99.7181 80.9597 100.619 82 101.32C82.1674 101.476 82.2764 101.684 82.3088 101.91C82.3412 102.137 82.2952 102.367 82.1782 102.564C82.0613 102.76 81.8806 102.911 81.6662 102.99C81.4518 103.069 81.2167 103.073 81 103C79.2382 101.872 77.8254 100.276 76.92 98.3899C75.9369 100.276 74.4702 101.867 72.67 103C72.5216 103.077 72.3572 103.118 72.19 103.12Z" fill="#5461F2"/>
<path d="M529.65 118.1C529.385 118.1 529.13 117.995 528.943 117.807C528.755 117.619 528.65 117.365 528.65 117.1V73.8399C528.704 73.6237 528.829 73.4317 529.005 73.2946C529.181 73.1575 529.397 73.083 529.62 73.083C529.843 73.083 530.059 73.1575 530.235 73.2946C530.411 73.4317 530.536 73.6237 530.59 73.8399V117.14C530.581 117.388 530.479 117.624 530.305 117.801C530.131 117.979 529.898 118.085 529.65 118.1Z" fill="#5461F2"/>
<path d="M524.92 81.39C524.752 81.3849 524.587 81.3373 524.442 81.2516C524.297 81.1659 524.176 81.045 524.09 80.9C523.97 80.6766 523.94 80.416 524.005 80.1709C524.07 79.9259 524.225 79.7147 524.44 79.58C526.621 78.1899 528.163 75.9934 528.73 73.47C528.779 73.2528 528.899 73.0581 529.071 72.9168C529.243 72.7755 529.457 72.6957 529.68 72.69C529.911 72.6843 530.137 72.759 530.319 72.9012C530.502 73.0434 530.629 73.2444 530.68 73.47C530.915 74.7076 531.396 75.8858 532.093 76.935C532.79 77.9843 533.69 78.8836 534.74 79.58C534.907 79.7357 535.016 79.9441 535.049 80.1704C535.081 80.3967 535.035 80.6273 534.918 80.8237C534.801 81.0202 534.621 81.1706 534.406 81.25C534.192 81.3294 533.957 81.3329 533.74 81.26C531.973 80.1387 530.558 78.5406 529.66 76.65C528.677 78.5394 527.206 80.1311 525.4 81.26C525.255 81.3471 525.089 81.3921 524.92 81.39Z" fill="#5461F2"/>
<path d="M524.92 88C524.751 88.0018 524.585 87.9582 524.439 87.8737C524.293 87.7893 524.173 87.6671 524.09 87.52C523.97 87.2966 523.94 87.036 524.005 86.7909C524.07 86.5459 524.225 86.3346 524.44 86.2C525.529 85.5014 526.469 84.5937 527.206 83.5295C527.942 82.4653 528.46 81.2657 528.73 80C528.777 79.7809 528.896 79.5839 529.068 79.4407C529.241 79.2974 529.456 79.2162 529.68 79.21C529.913 79.2048 530.14 79.2808 530.322 79.425C530.505 79.5692 530.631 79.7725 530.68 80C530.915 81.2376 531.396 82.4157 532.093 83.465C532.79 84.5143 533.69 85.4136 534.74 86.11C534.907 86.2657 535.016 86.474 535.049 86.7003C535.081 86.9266 535.035 87.1572 534.918 87.3537C534.801 87.5501 534.621 87.7006 534.406 87.78C534.192 87.8594 533.957 87.8629 533.74 87.79C531.975 86.6654 530.562 85.0682 529.66 83.18C528.677 85.0693 527.206 86.6611 525.4 87.79C525.262 87.9014 525.096 87.9739 524.92 88Z" fill="#5461F2"/>
<path d="M524.92 94.89C524.751 94.8918 524.585 94.8482 524.439 94.7637C524.293 94.6793 524.173 94.5571 524.09 94.41C523.97 94.1866 523.94 93.926 524.005 93.6809C524.07 93.4359 524.225 93.2246 524.44 93.09C526.619 91.707 528.161 89.5173 528.73 87C528.777 86.7809 528.896 86.5839 529.068 86.4407C529.241 86.2974 529.456 86.2162 529.68 86.21C529.913 86.2048 530.14 86.2808 530.322 86.425C530.505 86.5692 530.631 86.7725 530.68 87C530.915 88.2376 531.396 89.4157 532.093 90.465C532.79 91.5143 533.69 92.4136 534.74 93.11C534.907 93.2657 535.016 93.474 535.049 93.7003C535.081 93.9266 535.035 94.1572 534.918 94.3537C534.801 94.5501 534.621 94.7006 534.406 94.78C534.192 94.8594 533.957 94.8629 533.74 94.79C531.975 93.6654 530.562 92.0682 529.66 90.18C528.677 92.0693 527.206 93.6611 525.4 94.79C525.251 94.8626 525.086 94.897 524.92 94.89Z" fill="#5461F2"/>
<path d="M524.92 101.46C524.751 101.462 524.585 101.418 524.439 101.334C524.293 101.249 524.173 101.127 524.09 100.98C523.97 100.757 523.94 100.496 524.005 100.251C524.07 100.006 524.225 99.7947 524.44 99.6601C526.62 98.2692 528.162 96.073 528.73 93.5501C528.777 93.331 528.896 93.134 529.068 92.9908C529.241 92.8475 529.456 92.7663 529.68 92.7601C529.911 92.7544 530.137 92.829 530.319 92.9713C530.502 93.1135 530.629 93.3145 530.68 93.5401C530.91 94.7808 531.389 95.9624 532.086 97.0139C532.784 98.0655 533.686 98.9655 534.74 99.6601C534.884 99.7058 535.015 99.7834 535.125 99.8871C535.234 99.9909 535.319 100.118 535.372 100.259C535.426 100.4 535.447 100.552 535.433 100.702C535.42 100.852 535.373 100.997 535.295 101.127C535.218 101.256 535.112 101.366 534.986 101.449C534.86 101.532 534.716 101.585 534.567 101.605C534.417 101.624 534.265 101.61 534.122 101.562C533.979 101.515 533.848 101.435 533.74 101.33C531.97 100.216 530.555 98.6201 529.66 96.7301C528.678 98.6178 527.207 100.207 525.4 101.33C525.255 101.417 525.089 101.462 524.92 101.46Z" fill="#5461F2"/>
<path d="M514.86 116.53C514.595 116.53 514.34 116.425 514.153 116.237C513.965 116.05 513.86 115.795 513.86 115.53V83.1399C513.82 82.9916 513.814 82.836 513.844 82.6852C513.873 82.5344 513.937 82.3924 514.031 82.2703C514.124 82.1482 514.244 82.0493 514.382 81.9812C514.52 81.9131 514.671 81.8777 514.825 81.8777C514.979 81.8777 515.13 81.9131 515.268 81.9812C515.406 82.0493 515.526 82.1482 515.619 82.2703C515.713 82.3924 515.777 82.5344 515.806 82.6852C515.836 82.836 515.83 82.9916 515.79 83.1399V115.56C515.783 115.808 515.684 116.045 515.512 116.224C515.34 116.404 515.108 116.513 514.86 116.53Z" fill="#5461F2"/>
<path d="M510.13 90.68C509.93 90.6576 509.741 90.5753 509.589 90.444C509.436 90.3127 509.327 90.1384 509.275 89.9439C509.223 89.7495 509.232 89.5439 509.298 89.3541C509.365 89.1643 509.488 88.9991 509.65 88.88C511.827 87.486 513.368 85.2912 513.94 82.77C513.987 82.551 514.106 82.354 514.278 82.2108C514.451 82.0675 514.666 81.9863 514.89 81.98C515.121 81.9744 515.347 82.049 515.529 82.1912C515.712 82.3334 515.839 82.5345 515.89 82.76C516.118 84.0003 516.595 85.1815 517.293 86.2318C517.991 87.2821 518.895 88.1796 519.95 88.87C520.166 89.0031 520.324 89.2136 520.391 89.4588C520.458 89.704 520.429 89.9655 520.31 90.19C520.177 90.404 519.968 90.5599 519.726 90.6266C519.483 90.6934 519.224 90.666 519 90.55C517.229 89.433 515.813 87.8337 514.92 85.94C513.937 87.8294 512.466 89.4212 510.66 90.55C510.5 90.6448 510.316 90.6901 510.13 90.68Z" fill="#5461F2"/>
<path d="M510.13 97.2501C509.96 97.2466 509.793 97.1998 509.646 97.1141C509.499 97.0283 509.377 96.9065 509.29 96.7601C509.174 96.5365 509.147 96.2774 509.213 96.0346C509.28 95.7917 509.436 95.583 509.65 95.4501C511.83 94.0545 513.372 91.8554 513.94 89.3301C513.989 89.1129 514.109 88.9182 514.281 88.7769C514.453 88.6356 514.667 88.5558 514.89 88.5501C515.121 88.5445 515.347 88.6191 515.529 88.7613C515.712 88.9035 515.839 89.1045 515.89 89.3301C516.118 90.5704 516.595 91.7515 517.293 92.8018C517.991 93.8521 518.895 94.7497 519.95 95.4401C520.166 95.5732 520.324 95.7837 520.391 96.0289C520.458 96.2741 520.429 96.5355 520.31 96.7601C520.177 96.9741 519.968 97.13 519.726 97.1967C519.483 97.2634 519.224 97.2361 519 97.1201C517.229 96.0031 515.813 94.4038 514.92 92.5101C513.937 94.3995 512.466 95.9912 510.66 97.1201C510.5 97.2149 510.316 97.2601 510.13 97.2501Z" fill="#5461F2"/>
<path d="M510.13 104.19C509.93 104.168 509.741 104.085 509.589 103.954C509.436 103.823 509.327 103.648 509.275 103.454C509.223 103.26 509.232 103.054 509.298 102.864C509.365 102.674 509.488 102.509 509.65 102.39C511.83 100.994 513.372 98.7953 513.94 96.27C513.989 96.0528 514.109 95.8581 514.281 95.7169C514.453 95.5756 514.667 95.4957 514.89 95.49C515.121 95.4844 515.347 95.559 515.529 95.7012C515.712 95.8435 515.839 96.0445 515.89 96.27C516.118 97.5104 516.595 98.6915 517.293 99.7418C517.991 100.792 518.895 101.69 519.95 102.38C520.166 102.513 520.324 102.724 520.391 102.969C520.458 103.214 520.429 103.475 520.31 103.7C520.177 103.914 519.968 104.07 519.726 104.137C519.483 104.203 519.224 104.176 519 104.06C517.229 102.943 515.813 101.344 514.92 99.45C513.937 101.339 512.466 102.931 510.66 104.06C510.5 104.155 510.316 104.2 510.13 104.19Z" fill="#5461F2"/>
<path d="M510.13 110.76C509.927 110.74 509.736 110.658 509.581 110.526C509.426 110.394 509.315 110.218 509.263 110.021C509.211 109.825 509.22 109.617 509.289 109.425C509.358 109.234 509.484 109.068 509.65 108.95C511.83 107.559 513.372 105.363 513.94 102.84C513.989 102.623 514.109 102.428 514.281 102.287C514.453 102.146 514.667 102.066 514.89 102.06C515.121 102.054 515.347 102.129 515.529 102.271C515.712 102.414 515.839 102.615 515.89 102.84C516.108 104.085 516.575 105.272 517.264 106.331C517.953 107.389 518.85 108.297 519.9 109C520.117 109.133 520.274 109.344 520.341 109.589C520.408 109.834 520.379 110.096 520.26 110.32C520.127 110.534 519.918 110.69 519.676 110.757C519.433 110.823 519.174 110.796 518.95 110.68C517.179 109.563 515.763 107.964 514.87 106.07C513.887 107.959 512.416 109.551 510.61 110.68C510.46 110.748 510.294 110.776 510.13 110.76Z" fill="#5461F2"/>
<path d="M468.27 100.63C468.005 100.63 467.75 100.525 467.563 100.337C467.375 100.15 467.27 99.8952 467.27 99.63V54.2C467.23 54.0517 467.224 53.8961 467.254 53.7453C467.283 53.5945 467.347 53.4525 467.441 53.3304C467.534 53.2083 467.654 53.1094 467.792 53.0413C467.93 52.9732 468.081 52.9377 468.235 52.9377C468.389 52.9377 468.54 52.9732 468.678 53.0413C468.816 53.1094 468.936 53.2083 469.029 53.3304C469.123 53.4525 469.187 53.5945 469.216 53.7453C469.246 53.8961 469.24 54.0517 469.2 54.2V99.67C469.191 99.9165 469.091 100.151 468.919 100.328C468.747 100.505 468.516 100.613 468.27 100.63Z" fill="#5461F2"/>
<path d="M463.55 61.74C463.349 61.7193 463.159 61.6382 463.006 61.5076C462.852 61.3769 462.741 61.2028 462.688 61.008C462.635 60.8132 462.642 60.607 462.708 60.4164C462.775 60.2258 462.897 60.0597 463.06 59.94C465.238 58.5468 466.779 56.3516 467.35 53.83C467.397 53.611 467.516 53.414 467.688 53.2708C467.861 53.1275 468.076 53.0463 468.3 53.04C468.523 53.0457 468.737 53.1255 468.909 53.2668C469.081 53.4081 469.201 53.6028 469.25 53.82C469.484 55.0583 469.963 56.237 470.661 57.2865C471.358 58.336 472.259 59.2349 473.31 59.93C473.459 59.968 473.597 60.0397 473.714 60.1397C473.831 60.2397 473.923 60.3652 473.983 60.5066C474.043 60.6479 474.07 60.8013 474.062 60.9547C474.053 61.1082 474.009 61.2576 473.934 61.3914C473.858 61.5251 473.753 61.6397 473.626 61.7261C473.498 61.8125 473.353 61.8685 473.201 61.8896C473.049 61.9108 472.894 61.8965 472.748 61.8481C472.602 61.7996 472.469 61.7181 472.36 61.61C470.592 60.4888 469.178 58.8906 468.28 57C467.289 58.89 465.811 60.4813 464 61.61C463.862 61.6884 463.708 61.7329 463.55 61.74Z" fill="#5461F2"/>
<path d="M463.55 68.3101C463.38 68.3067 463.213 68.2598 463.066 68.1741C462.919 68.0883 462.797 67.9665 462.71 67.8201C462.593 67.5977 462.564 67.3395 462.629 67.0967C462.694 66.854 462.848 66.6446 463.06 66.5101C465.243 65.1177 466.786 62.9172 467.35 60.3901C467.399 60.1729 467.519 59.9782 467.691 59.8369C467.863 59.6956 468.077 59.6158 468.3 59.6101C468.523 59.6158 468.737 59.6956 468.909 59.8369C469.081 59.9782 469.201 60.1729 469.25 60.3901C469.484 61.6283 469.963 62.8071 470.661 63.8566C471.358 64.9061 472.259 65.805 473.31 66.5001C473.459 66.538 473.597 66.6098 473.714 66.7097C473.831 66.8097 473.923 66.9353 473.983 67.0766C474.043 67.218 474.07 67.3713 474.062 67.5248C474.053 67.6782 474.009 67.8276 473.934 67.9614C473.858 68.0952 473.753 68.2097 473.626 68.2962C473.498 68.3826 473.353 68.4385 473.201 68.4597C473.049 68.4808 472.894 68.4666 472.748 68.4181C472.602 68.3696 472.469 68.2882 472.36 68.1801C470.593 67.0589 469.178 65.4607 468.28 63.5701C467.289 65.46 465.811 67.0514 464 68.1801C463.862 68.2585 463.708 68.303 463.55 68.3101Z" fill="#5461F2"/>
<path d="M463.55 75.25C463.38 75.2466 463.213 75.1998 463.066 75.114C462.919 75.0283 462.797 74.9064 462.71 74.76C462.593 74.5377 462.564 74.2794 462.629 74.0367C462.694 73.7939 462.848 73.5845 463.06 73.45C465.24 72.0592 466.782 69.863 467.35 67.34C467.397 67.121 467.516 66.924 467.688 66.7808C467.861 66.6375 468.076 66.5563 468.3 66.55C468.523 66.5557 468.737 66.6356 468.909 66.7768C469.081 66.9181 469.201 67.1128 469.25 67.33C469.479 68.5712 469.958 69.7528 470.657 70.8032C471.357 71.8535 472.263 72.7506 473.32 73.44C473.487 73.5958 473.596 73.8041 473.629 74.0304C473.661 74.2567 473.615 74.4873 473.498 74.6838C473.381 74.8802 473.201 75.0307 472.986 75.11C472.772 75.1894 472.537 75.193 472.32 75.12C470.553 73.9988 469.138 72.4007 468.24 70.51C467.26 72.395 465.796 73.9858 464 75.12C463.862 75.1984 463.708 75.2429 463.55 75.25Z" fill="#5461F2"/>
<path d="M463.55 81.8201C463.347 81.8016 463.154 81.7213 462.998 81.59C462.841 81.4586 462.729 81.2826 462.675 81.0855C462.622 80.8885 462.63 80.6798 462.699 80.4875C462.768 80.2953 462.894 80.1287 463.06 80.0101C465.243 78.6225 466.786 76.4248 467.35 73.9001C467.399 73.6829 467.519 73.4882 467.691 73.3469C467.863 73.2056 468.077 73.1258 468.3 73.1201C468.523 73.1258 468.737 73.2056 468.909 73.3469C469.081 73.4882 469.201 73.6829 469.25 73.9001C469.485 75.1365 469.965 76.3134 470.663 77.3611C471.36 78.4088 472.26 79.3061 473.31 80.0001C473.459 80.038 473.597 80.1098 473.714 80.2098C473.831 80.3097 473.923 80.4353 473.983 80.5766C474.043 80.718 474.07 80.8713 474.062 81.0248C474.053 81.1782 474.009 81.3276 473.934 81.4614C473.858 81.5952 473.753 81.7098 473.626 81.7962C473.498 81.8826 473.353 81.9385 473.201 81.9597C473.049 81.9808 472.894 81.9666 472.748 81.9181C472.602 81.8697 472.469 81.7882 472.36 81.6801C470.593 80.5589 469.178 78.9607 468.28 77.0701C467.29 78.9637 465.813 80.5586 464 81.6901C463.862 81.7685 463.708 81.813 463.55 81.8201Z" fill="#5461F2"/>
<path d="M345.64 90C345.375 90 345.12 89.8946 344.933 89.7071C344.745 89.5196 344.64 89.2652 344.64 89V43.54C344.698 43.3282 344.823 43.1411 344.998 43.0078C345.172 42.8745 345.385 42.8022 345.605 42.8022C345.825 42.8022 346.038 42.8745 346.212 43.0078C346.387 43.1411 346.512 43.3282 346.57 43.54V89C346.571 89.2535 346.475 89.4978 346.302 89.6835C346.13 89.8691 345.893 89.9823 345.64 90Z" fill="#5461F2"/>
<path d="M340.92 51.0899C340.719 51.0691 340.529 50.9881 340.376 50.8574C340.222 50.7268 340.111 50.5526 340.058 50.3579C340.005 50.1631 340.012 49.9569 340.079 49.7662C340.145 49.5756 340.267 49.4096 340.43 49.2899C342.61 47.8943 344.152 45.6952 344.72 43.1699C344.769 42.9527 344.889 42.758 345.061 42.6167C345.233 42.4754 345.447 42.3956 345.67 42.3899C345.893 42.3956 346.107 42.4754 346.279 42.6167C346.451 42.758 346.571 42.9527 346.62 43.1699C346.847 44.4118 347.324 45.5943 348.024 46.645C348.724 47.6956 349.631 48.5923 350.69 49.2799C350.857 49.4356 350.966 49.644 350.999 49.8703C351.031 50.0966 350.985 50.3272 350.868 50.5236C350.751 50.7201 350.571 50.8705 350.356 50.9499C350.142 51.0293 349.907 51.0328 349.69 50.9599C347.919 49.8429 346.503 48.2436 345.61 46.3499C344.644 48.2489 343.187 49.8545 341.39 50.9999C341.244 51.0718 341.082 51.1029 340.92 51.0899Z" fill="#5461F2"/>
<path d="M340.92 57.66C340.717 57.6414 340.524 57.5611 340.368 57.4298C340.211 57.2985 340.099 57.1225 340.045 56.9254C339.992 56.7283 340 56.5196 340.069 56.3274C340.138 56.1351 340.264 55.9685 340.43 55.85C342.613 54.4623 344.156 52.2647 344.72 49.74C344.769 49.5227 344.889 49.3281 345.061 49.1868C345.233 49.0455 345.447 48.9657 345.67 48.96C345.893 48.9657 346.107 49.0455 346.279 49.1868C346.451 49.3281 346.571 49.5227 346.62 49.74C346.848 50.9813 347.327 52.1631 348.027 53.2136C348.726 54.264 349.633 55.161 350.69 55.85C350.857 56.0057 350.966 56.214 350.999 56.4403C351.031 56.6666 350.985 56.8972 350.868 57.0937C350.751 57.2901 350.571 57.4406 350.356 57.52C350.142 57.5993 349.907 57.6029 349.69 57.53C347.923 56.4087 346.508 54.8106 345.61 52.92C344.627 54.8093 343.156 56.4011 341.35 57.53C341.22 57.6089 341.072 57.6537 340.92 57.66Z" fill="#5461F2"/>
<path d="M340.92 64.5999C340.717 64.5814 340.524 64.5011 340.368 64.3698C340.211 64.2384 340.099 64.0624 340.045 63.8653C339.992 63.6683 340 63.4596 340.069 63.2673C340.138 63.0751 340.264 62.9085 340.43 62.7899C342.611 61.3998 344.153 59.2033 344.72 56.6799C344.769 56.4627 344.889 56.268 345.061 56.1267C345.233 55.9854 345.447 55.9056 345.67 55.8999C345.893 55.9056 346.107 55.9854 346.279 56.1267C346.451 56.268 346.571 56.4627 346.62 56.6799C346.848 57.9212 347.327 59.1031 348.027 60.1535C348.726 61.2039 349.633 62.1009 350.69 62.7899C350.857 62.9456 350.966 63.154 350.999 63.3803C351.031 63.6066 350.985 63.8372 350.868 64.0336C350.751 64.2301 350.571 64.3805 350.356 64.4599C350.142 64.5393 349.907 64.5428 349.69 64.4699C347.919 63.3529 346.504 61.7536 345.61 59.8599C344.627 61.7493 343.156 63.341 341.35 64.4699C341.22 64.5489 341.072 64.5936 340.92 64.5999Z" fill="#5461F2"/>
<path d="M340.92 71.17C340.717 71.1514 340.524 71.0711 340.368 70.9398C340.211 70.8085 340.099 70.6325 340.045 70.4354C339.992 70.2383 340 70.0296 340.069 69.8374C340.138 69.6451 340.264 69.4785 340.43 69.36C342.611 67.9699 344.153 65.7733 344.72 63.25C344.767 63.0309 344.886 62.8339 345.058 62.6907C345.231 62.5474 345.446 62.4662 345.67 62.46C345.894 62.4662 346.109 62.5474 346.282 62.6907C346.454 62.8339 346.573 63.0309 346.62 63.25C346.848 64.4913 347.327 65.6731 348.027 66.7236C348.726 67.774 349.633 68.671 350.69 69.36C350.857 69.5157 350.966 69.724 350.999 69.9503C351.031 70.1766 350.985 70.4072 350.868 70.6037C350.751 70.8001 350.571 70.9506 350.356 71.03C350.142 71.1093 349.907 71.1129 349.69 71.04C347.925 69.9154 346.512 68.3182 345.61 66.43C344.632 68.2997 343.176 69.8766 341.39 71C341.25 71.0955 341.089 71.154 340.92 71.17Z" fill="#5461F2"/>
<path d="M193.63 75.6499C193.365 75.6499 193.11 75.5446 192.923 75.357C192.735 75.1695 192.63 74.9151 192.63 74.6499V29.2099C192.688 28.9981 192.813 28.8111 192.988 28.6777C193.162 28.5444 193.375 28.4722 193.595 28.4722C193.815 28.4722 194.028 28.5444 194.202 28.6777C194.377 28.8111 194.502 28.9981 194.56 29.2099V74.6799C194.553 74.9282 194.454 75.1651 194.282 75.3444C194.11 75.5237 193.878 75.6326 193.63 75.6499Z" fill="#5461F2"/>
<path d="M188.91 36.7601C188.74 36.7567 188.573 36.7098 188.426 36.6241C188.279 36.5384 188.157 36.4165 188.07 36.2701C187.951 36.0455 187.922 35.7841 187.989 35.5389C188.056 35.2937 188.213 35.0832 188.43 34.9501C190.606 33.5573 192.145 31.3614 192.71 28.8401C192.759 28.6229 192.879 28.4282 193.051 28.2869C193.223 28.1456 193.437 28.0658 193.66 28.0601C193.891 28.0545 194.117 28.1291 194.299 28.2713C194.482 28.4135 194.609 28.6145 194.66 28.8401C194.878 30.0855 195.347 31.2737 196.038 32.3325C196.729 33.3914 197.628 34.2989 198.68 35.0001C198.821 35.0477 198.95 35.1263 199.057 35.2302C199.165 35.3342 199.247 35.4607 199.299 35.6006C199.351 35.7406 199.37 35.8903 199.357 36.0389C199.343 36.1875 199.297 36.3312 199.22 36.4594C199.144 36.5876 199.04 36.6971 198.916 36.7799C198.792 36.8627 198.651 36.9166 198.503 36.9378C198.355 36.9589 198.205 36.9468 198.062 36.9022C197.92 36.8576 197.789 36.7817 197.68 36.6801C195.922 35.5319 194.524 33.9093 193.65 32.0001C192.664 33.8875 191.194 35.4786 189.39 36.6101C189.245 36.7002 189.08 36.7518 188.91 36.7601Z" fill="#5461F2"/>
<path d="M188.91 43.3199C188.71 43.2974 188.521 43.2152 188.369 43.0838C188.217 42.9525 188.107 42.7782 188.055 42.5838C188.003 42.3893 188.012 42.1838 188.078 41.994C188.145 41.8042 188.268 41.6389 188.43 41.5199C190.606 40.1271 192.145 37.9311 192.71 35.4099C192.757 35.1908 192.876 34.9939 193.048 34.8506C193.221 34.7074 193.436 34.6261 193.66 34.6199C193.893 34.6147 194.12 34.6908 194.302 34.8349C194.485 34.9791 194.611 35.1824 194.66 35.4099C194.891 36.6504 195.37 37.8314 196.07 38.8815C196.769 39.9317 197.674 40.8292 198.73 41.5199C198.897 41.6756 199.006 41.8839 199.039 42.1102C199.071 42.3365 199.025 42.5671 198.908 42.7636C198.791 42.96 198.611 43.1105 198.396 43.1899C198.182 43.2693 197.947 43.2728 197.73 43.1999C195.97 42.0731 194.56 40.4762 193.66 38.5899C192.67 40.4745 191.201 42.0647 189.4 43.1999C189.25 43.2811 189.081 43.3224 188.91 43.3199Z" fill="#5461F2"/>
<path d="M188.91 50.2601C188.71 50.2376 188.521 50.1553 188.369 50.024C188.217 49.8927 188.107 49.7184 188.055 49.524C188.003 49.3295 188.012 49.124 188.078 48.9342C188.145 48.7443 188.268 48.5791 188.43 48.4601C190.606 47.0673 192.145 44.8713 192.71 42.3501C192.757 42.131 192.876 41.934 193.048 41.7908C193.221 41.6475 193.436 41.5663 193.66 41.5601C193.893 41.5549 194.12 41.6309 194.302 41.7751C194.485 41.9193 194.611 42.1226 194.66 42.3501C194.891 43.5906 195.37 44.7716 196.07 45.8217C196.769 46.8718 197.674 47.7693 198.73 48.4601C198.897 48.6158 199.006 48.8241 199.039 49.0504C199.071 49.2767 199.025 49.5073 198.908 49.7038C198.791 49.9002 198.611 50.0507 198.396 50.1301C198.182 50.2094 197.947 50.213 197.73 50.1401C195.97 49.0132 194.56 47.4164 193.66 45.5301C192.674 47.4175 191.204 49.0086 189.4 50.1401C189.25 50.2213 189.081 50.2626 188.91 50.2601Z" fill="#5461F2"/>
<path d="M188.91 56.8299C188.71 56.8075 188.521 56.7252 188.369 56.5939C188.217 56.4626 188.107 56.2883 188.055 56.0938C188.003 55.8994 188.012 55.6938 188.078 55.504C188.145 55.3142 188.268 55.149 188.43 55.0299C190.604 53.6348 192.142 51.4399 192.71 48.9199C192.757 48.7009 192.876 48.5039 193.048 48.3607C193.221 48.2174 193.436 48.1362 193.66 48.1299C193.891 48.1243 194.117 48.1989 194.299 48.3411C194.482 48.4833 194.609 48.6844 194.66 48.9099C194.889 50.1421 195.363 51.3159 196.054 52.3619C196.744 53.4079 197.637 54.3049 198.68 54.9999C198.824 55.0456 198.955 55.1233 199.065 55.227C199.174 55.3308 199.259 55.4579 199.312 55.599C199.366 55.7401 199.387 55.8915 199.373 56.0417C199.36 56.192 199.313 56.3373 199.235 56.4667C199.158 56.5961 199.052 56.7063 198.926 56.7891C198.799 56.8718 198.656 56.925 198.507 56.9445C198.357 56.9641 198.205 56.9495 198.062 56.902C197.919 56.8544 197.788 56.7751 197.68 56.6699C195.914 55.5541 194.502 53.9586 193.61 52.0699C192.625 53.9554 191.154 55.5434 189.35 56.6699C189.219 56.7595 189.068 56.8146 188.91 56.8299Z" fill="#5461F2"/>
<path d="M361.11 87.8899C360.845 87.8899 360.59 87.7846 360.403 87.5971C360.215 87.4095 360.11 87.1552 360.11 86.8899V29.6499C360.07 29.5016 360.064 29.346 360.094 29.1952C360.123 29.0444 360.187 28.9024 360.281 28.7803C360.374 28.6582 360.494 28.5593 360.632 28.4912C360.77 28.4231 360.921 28.3877 361.075 28.3877C361.229 28.3877 361.38 28.4231 361.518 28.4912C361.656 28.5593 361.776 28.6582 361.869 28.7803C361.963 28.9024 362.027 29.0444 362.056 29.1952C362.086 29.346 362.08 29.5016 362.04 29.6499V86.9299C362.031 87.1765 361.931 87.4109 361.759 87.5881C361.587 87.7654 361.356 87.8728 361.11 87.8899Z" fill="#5461F2"/>
<path d="M355.31 38.6899C355.107 38.6714 354.914 38.5911 354.758 38.4598C354.601 38.3285 354.489 38.1525 354.435 37.9554C354.382 37.7583 354.39 37.5496 354.459 37.3574C354.528 37.1651 354.654 36.9985 354.82 36.88C356.175 36.0212 357.346 34.9033 358.268 33.5905C359.19 32.2777 359.843 30.7959 360.19 29.2299C360.239 29.0127 360.359 28.818 360.531 28.6768C360.703 28.5355 360.917 28.4556 361.14 28.45C361.363 28.4556 361.577 28.5355 361.749 28.6768C361.921 28.818 362.041 29.0127 362.09 29.2299C362.381 30.7816 362.982 32.2588 363.856 33.5731C364.731 34.8875 365.861 36.0122 367.18 36.88C367.329 36.9179 367.467 36.9896 367.584 37.0896C367.701 37.1896 367.793 37.3151 367.853 37.4565C367.913 37.5978 367.94 37.7512 367.932 37.9046C367.923 38.0581 367.879 38.2075 367.804 38.3413C367.728 38.475 367.623 38.5896 367.496 38.676C367.368 38.7624 367.223 38.8184 367.071 38.8395C366.919 38.8607 366.764 38.8465 366.618 38.798C366.472 38.7495 366.339 38.668 366.23 38.56C363.967 37.1137 362.188 35.0243 361.12 32.56C359.952 35.0306 358.098 37.1134 355.78 38.56C355.638 38.6457 355.476 38.6907 355.31 38.6899Z" fill="#5461F2"/>
<path d="M355.31 46.75C355.107 46.7315 354.914 46.6512 354.758 46.5199C354.601 46.3885 354.489 46.2125 354.435 46.0154C354.382 45.8184 354.39 45.6097 354.459 45.4174C354.528 45.2252 354.654 45.0586 354.82 44.94C356.174 44.0824 357.345 42.9661 358.266 41.6551C359.188 40.3441 359.841 38.8641 360.19 37.3C360.237 37.0809 360.356 36.884 360.528 36.7407C360.701 36.5975 360.916 36.5162 361.14 36.51C361.363 36.5157 361.577 36.5955 361.749 36.7368C361.921 36.8781 362.041 37.0728 362.09 37.29C362.381 38.8417 362.982 40.3188 363.856 41.6332C364.731 42.9476 365.861 44.0722 367.18 44.94C367.329 44.9779 367.467 45.0497 367.584 45.1497C367.701 45.2496 367.793 45.3752 367.853 45.5165C367.913 45.6579 367.94 45.8112 367.932 45.9647C367.923 46.1181 367.879 46.2675 367.804 46.4013C367.728 46.5351 367.623 46.6496 367.496 46.7361C367.368 46.8225 367.223 46.8784 367.071 46.8996C366.919 46.9207 366.764 46.9065 366.618 46.858C366.472 46.8095 366.339 46.7281 366.23 46.62C363.964 45.177 362.184 43.0867 361.12 40.62C359.952 43.0907 358.098 45.1734 355.78 46.62C355.638 46.7058 355.476 46.7508 355.31 46.75Z" fill="#5461F2"/>
<path d="M355.31 55.27C355.107 55.2515 354.914 55.1712 354.758 55.0399C354.601 54.9086 354.489 54.7325 354.435 54.5355C354.382 54.3384 354.39 54.1297 354.459 53.9374C354.528 53.7452 354.654 53.5786 354.82 53.46C356.175 52.6013 357.346 51.4834 358.268 50.1706C359.19 48.8578 359.843 47.3759 360.19 45.81C360.239 45.5928 360.359 45.3981 360.531 45.2568C360.703 45.1155 360.917 45.0357 361.14 45.03C361.363 45.0357 361.577 45.1155 361.749 45.2568C361.921 45.3981 362.041 45.5928 362.09 45.81C362.385 47.3604 362.987 48.836 363.861 50.1499C364.735 51.4638 365.864 52.5893 367.18 53.46C367.396 53.5913 367.554 53.7994 367.622 54.0424C367.691 54.2853 367.665 54.5453 367.55 54.77C367.418 54.9882 367.209 55.148 366.963 55.2168C366.718 55.2856 366.456 55.2581 366.23 55.14C363.97 53.6905 362.191 51.6022 361.12 49.14C359.948 51.6082 358.096 53.69 355.78 55.14C355.636 55.2215 355.475 55.2661 355.31 55.27Z" fill="#5461F2"/>
<path d="M355.31 63.3301C355.107 63.3116 354.914 63.2313 354.758 63.0999C354.601 62.9686 354.489 62.7926 354.435 62.5955C354.382 62.3984 354.39 62.1898 354.459 61.9975C354.528 61.8053 354.654 61.6387 354.82 61.5201C356.175 60.6613 357.346 59.5435 358.268 58.2307C359.19 56.9179 359.843 55.436 360.19 53.8701C360.239 53.6529 360.359 53.4582 360.531 53.3169C360.703 53.1756 360.917 53.0958 361.14 53.0901C361.363 53.0958 361.577 53.1756 361.749 53.3169C361.921 53.4582 362.041 53.6529 362.09 53.8701C362.383 55.421 362.985 56.8973 363.859 58.2114C364.733 59.5254 365.863 60.6506 367.18 61.5201C367.396 61.6514 367.554 61.8594 367.622 62.1024C367.691 62.3454 367.665 62.6054 367.55 62.8301C367.418 63.0483 367.209 63.2081 366.963 63.2769C366.718 63.3456 366.456 63.3182 366.23 63.2001C363.967 61.7538 362.188 59.6645 361.12 57.2001C359.948 59.6683 358.096 61.75 355.78 63.2001C355.636 63.2815 355.475 63.3262 355.31 63.3301Z" fill="#5461F2"/>
<path d="M177.47 92.5701C177.205 92.5701 176.95 92.4648 176.763 92.2772C176.575 92.0897 176.47 91.8353 176.47 91.5701V34.3301C176.43 34.1818 176.424 34.0262 176.454 33.8754C176.483 33.7246 176.547 33.5826 176.641 33.4605C176.734 33.3384 176.854 33.2395 176.992 33.1714C177.13 33.1033 177.281 33.0679 177.435 33.0679C177.589 33.0679 177.74 33.1033 177.878 33.1714C178.016 33.2395 178.136 33.3384 178.229 33.4605C178.323 33.5826 178.387 33.7246 178.416 33.8754C178.446 34.0262 178.44 34.1818 178.4 34.3301V91.6001C178.393 91.8484 178.294 92.0853 178.122 92.2646C177.95 92.4439 177.718 92.5528 177.47 92.5701Z" fill="#5461F2"/>
<path d="M171.67 43.3699C171.467 43.3514 171.274 43.2711 171.118 43.1397C170.961 43.0084 170.849 42.8324 170.795 42.6353C170.742 42.4382 170.75 42.2295 170.819 42.0373C170.888 41.845 171.014 41.6784 171.18 41.5599C172.535 40.7011 173.706 39.5833 174.628 38.2705C175.55 36.9577 176.203 35.4758 176.55 33.9099C176.599 33.6927 176.719 33.498 176.891 33.3567C177.063 33.2154 177.277 33.1356 177.5 33.1299C177.723 33.1356 177.937 33.2154 178.109 33.3567C178.281 33.498 178.401 33.6927 178.45 33.9099C178.743 35.4608 179.345 36.9371 180.219 38.2512C181.093 39.5652 182.223 40.6904 183.54 41.5599C183.756 41.6912 183.914 41.8992 183.982 42.1422C184.051 42.3852 184.025 42.6451 183.91 42.8699C183.778 43.0881 183.569 43.2479 183.323 43.3167C183.078 43.3854 182.816 43.358 182.59 43.2399C180.327 41.7936 178.548 39.7043 177.48 37.2399C176.308 39.708 174.456 41.7898 172.14 43.2399C171.998 43.3256 171.836 43.3706 171.67 43.3699Z" fill="#5461F2"/>
<path d="M171.67 51.43C171.467 51.4115 171.274 51.3311 171.118 51.1998C170.961 51.0685 170.849 50.8925 170.795 50.6954C170.742 50.4983 170.75 50.2896 170.819 50.0974C170.888 49.9051 171.014 49.7385 171.18 49.62C173.91 47.8926 175.841 45.1516 176.55 42C176.599 41.7827 176.719 41.5881 176.891 41.4468C177.063 41.3055 177.277 41.2257 177.5 41.22C177.723 41.2257 177.937 41.3055 178.109 41.4468C178.281 41.5881 178.401 41.7827 178.45 42C178.743 43.5509 179.345 45.0272 180.219 46.3412C181.093 47.6553 182.223 48.7805 183.54 49.65C183.756 49.7813 183.914 49.9893 183.982 50.2323C184.051 50.4753 184.025 50.7352 183.91 50.96C183.778 51.1782 183.569 51.338 183.323 51.4067C183.078 51.4755 182.816 51.4481 182.59 51.33C180.327 49.8837 178.548 47.7944 177.48 45.33C176.308 47.7981 174.456 49.8799 172.14 51.33C171.995 51.4053 171.833 51.4398 171.67 51.43Z" fill="#5461F2"/>
<path d="M171.67 59.94C171.501 59.9376 171.335 59.8923 171.188 59.8083C171.041 59.7244 170.918 59.6045 170.83 59.46C170.71 59.2366 170.68 58.976 170.745 58.7309C170.81 58.4859 170.965 58.2746 171.18 58.14C172.535 57.2812 173.706 56.1634 174.628 54.8506C175.55 53.5378 176.203 52.0559 176.55 50.49C176.599 50.2727 176.719 50.0781 176.891 49.9368C177.063 49.7955 177.277 49.7157 177.5 49.71C177.723 49.7157 177.937 49.7955 178.109 49.9368C178.281 50.0781 178.401 50.2727 178.45 50.49C178.745 52.0403 179.347 53.5159 180.221 54.8298C181.095 56.1437 182.224 57.2692 183.54 58.14C183.756 58.2713 183.914 58.4793 183.982 58.7223C184.051 58.9653 184.025 59.2252 183.91 59.45C183.779 59.6682 183.569 59.828 183.323 59.8967C183.078 59.9655 182.816 59.938 182.59 59.82C180.33 58.3704 178.551 56.2821 177.48 53.82C176.308 56.2881 174.456 58.3699 172.14 59.82C171.996 59.8979 171.834 59.9391 171.67 59.94Z" fill="#5461F2"/>
<path d="M171.67 68C171.501 67.9976 171.335 67.9523 171.188 67.8684C171.041 67.7844 170.918 67.6646 170.83 67.52C170.71 67.2966 170.68 67.036 170.745 66.791C170.81 66.5459 170.965 66.3347 171.18 66.2C172.535 65.3413 173.706 64.2234 174.628 62.9106C175.55 61.5978 176.203 60.1159 176.55 58.55C176.599 58.3328 176.719 58.1381 176.891 57.9968C177.063 57.8555 177.277 57.7757 177.5 57.77C177.723 57.7757 177.937 57.8555 178.109 57.9968C178.281 58.1381 178.401 58.3328 178.45 58.55C178.752 60.0991 179.358 61.5729 180.233 62.8861C181.109 64.1992 182.236 65.3256 183.55 66.2C183.717 66.3557 183.826 66.5641 183.859 66.7904C183.891 67.0167 183.845 67.2473 183.728 67.4437C183.611 67.6402 183.431 67.7906 183.216 67.87C183.002 67.9494 182.767 67.9529 182.55 67.88C180.29 66.4305 178.511 64.3421 177.44 61.88C176.268 64.3482 174.416 66.43 172.1 67.88C171.968 67.9519 171.821 67.9929 171.67 68Z" fill="#5461F2"/>
<path d="M218.39 60.3199C249.28 58.8499 279.08 85.3799 301.23 85.3799C323.38 85.3799 388.23 66.1599 400.63 66.1599C413.03 66.1599 440.07 93.4999 454.63 95.7199C469.19 97.9399 495.14 117.15 495.14 117.15H101.35C101.35 117.15 109.52 99.5899 153.35 90.6699C176.17 85.9999 189.62 61.6899 218.39 60.3199Z" fill="#E8EBFC"/>
<path d="M495.17 118H101.35C101.203 118 101.058 117.964 100.929 117.894C100.8 117.824 100.69 117.723 100.61 117.6C100.539 117.471 100.502 117.327 100.502 117.18C100.502 117.033 100.539 116.889 100.61 116.76C100.95 116.03 109.47 98.7 153.21 89.76C163.03 87.76 171.05 82.08 179.55 76.06C190.55 68.24 201.97 60.17 218.4 59.39V60.26V59.39C235.71 58.56 252.86 66.51 268 73.52C280.13 79.14 291.59 84.44 301.28 84.44C313.84 84.44 340.04 78.26 363.16 72.81C380.38 68.74 395.26 65.23 400.68 65.23C407.3 65.23 417.36 72.3 428.02 79.78C437.79 86.65 447.9 93.78 454.84 94.78C469.47 97 494.68 115.58 495.74 116.37C495.888 116.479 495.997 116.632 496.053 116.807C496.108 116.981 496.107 117.169 496.049 117.344C495.992 117.518 495.88 117.669 495.731 117.776C495.582 117.883 495.403 117.941 495.22 117.94L495.17 118ZM102.89 116.26H492.47C485.93 111.64 466.29 98.35 454.53 96.56C447.18 95.45 436.91 88.23 426.97 81.25C417.03 74.27 406.7 67 400.63 67C395.41 67 380.63 70.49 363.51 74.53C340.3 80 314 86.25 301.23 86.25C291.15 86.25 279.52 80.86 267.23 75.16C252.28 68.23 235.33 60.38 218.45 61.16C202.53 61.92 191.35 69.84 180.53 77.51C171.88 83.64 163.7 89.43 153.53 91.51C131.19 96.06 118.4 102.89 111.61 107.82C108.249 110.13 105.301 112.99 102.89 116.28V116.26Z" fill="#5461F2"/>
<path d="M174.67 96.5101C174.882 96.4525 175.069 96.3268 175.202 96.1524C175.336 95.978 175.408 95.7646 175.408 95.5451C175.408 95.3255 175.336 95.1121 175.202 94.9377C175.069 94.7633 174.882 94.6376 174.67 94.5801C174.458 94.6376 174.271 94.7633 174.138 94.9377C174.004 95.1121 173.932 95.3255 173.932 95.5451C173.932 95.7646 174.004 95.978 174.138 96.1524C174.271 96.3268 174.458 96.4525 174.67 96.5101Z" fill="#5461F2"/>
<path d="M201.4 81.4901C201.612 81.4325 201.799 81.3068 201.932 81.1324C202.066 80.958 202.138 80.7446 202.138 80.5251C202.138 80.3055 202.066 80.0921 201.932 79.9177C201.799 79.7433 201.612 79.6176 201.4 79.5601C201.188 79.6176 201.001 79.7433 200.868 79.9177C200.734 80.0921 200.662 80.3055 200.662 80.5251C200.662 80.7446 200.734 80.958 200.868 81.1324C201.001 81.3068 201.188 81.4325 201.4 81.4901Z" fill="#5461F2"/>
<path d="M253.07 101.92C253.282 101.862 253.469 101.737 253.602 101.562C253.736 101.388 253.808 101.175 253.808 100.955C253.808 100.735 253.736 100.522 253.602 100.348C253.469 100.173 253.282 100.048 253.07 99.99C252.858 100.048 252.671 100.173 252.538 100.348C252.404 100.522 252.332 100.735 252.332 100.955C252.332 101.175 252.404 101.388 252.538 101.562C252.671 101.737 252.858 101.862 253.07 101.92Z" fill="#5461F2"/>
<path d="M219.13 105.52C219.342 105.463 219.529 105.337 219.662 105.162C219.796 104.988 219.868 104.775 219.868 104.555C219.868 104.336 219.796 104.122 219.662 103.948C219.529 103.773 219.342 103.648 219.13 103.59C218.918 103.648 218.731 103.773 218.598 103.948C218.464 104.122 218.392 104.336 218.392 104.555C218.392 104.775 218.464 104.988 218.598 105.162C218.731 105.337 218.918 105.463 219.13 105.52Z" fill="#5461F2"/>
<path d="M128.4 104.34C128.612 104.282 128.799 104.157 128.932 103.982C129.066 103.808 129.138 103.594 129.138 103.375C129.138 103.155 129.066 102.942 128.932 102.768C128.799 102.593 128.612 102.467 128.4 102.41C128.188 102.467 128.001 102.593 127.868 102.768C127.734 102.942 127.662 103.155 127.662 103.375C127.662 103.594 127.734 103.808 127.868 103.982C128.001 104.157 128.188 104.282 128.4 104.34Z" fill="#5461F2"/>
<path d="M299.15 108.15C299.366 108.096 299.558 107.971 299.695 107.795C299.832 107.619 299.907 107.403 299.907 107.18C299.907 106.957 299.832 106.741 299.695 106.565C299.558 106.389 299.366 106.264 299.15 106.21C298.934 106.264 298.742 106.389 298.605 106.565C298.468 106.741 298.393 106.957 298.393 107.18C298.393 107.403 298.468 107.619 298.605 107.795C298.742 107.971 298.934 108.096 299.15 108.15Z" fill="#5461F2"/>
<path d="M317.52 94.5899C317.732 94.5323 317.919 94.4067 318.052 94.2323C318.186 94.0579 318.258 93.8444 318.258 93.6249C318.258 93.4054 318.186 93.192 318.052 93.0176C317.919 92.8432 317.732 92.7175 317.52 92.6599C317.308 92.7175 317.121 92.8432 316.988 93.0176C316.854 93.192 316.782 93.4054 316.782 93.6249C316.782 93.8444 316.854 94.0579 316.988 94.2323C317.121 94.4067 317.308 94.5323 317.52 94.5899Z" fill="#5461F2"/>
<path d="M397.11 92.4C397.322 92.3424 397.509 92.2167 397.642 92.0423C397.776 91.8679 397.848 91.6545 397.848 91.435C397.848 91.2154 397.776 91.002 397.642 90.8276C397.509 90.6532 397.322 90.5275 397.11 90.47C396.898 90.5275 396.711 90.6532 396.578 90.8276C396.444 91.002 396.372 91.2154 396.372 91.435C396.372 91.6545 396.444 91.8679 396.578 92.0423C396.711 92.2167 396.898 92.3424 397.11 92.4Z" fill="#5461F2"/>
<path d="M343.76 99.4C343.972 99.3424 344.159 99.2167 344.292 99.0423C344.426 98.8679 344.498 98.6545 344.498 98.435C344.498 98.2154 344.426 98.002 344.292 97.8276C344.159 97.6532 343.972 97.5275 343.76 97.47C343.548 97.5275 343.361 97.6532 343.228 97.8276C343.094 98.002 343.022 98.2154 343.022 98.435C343.022 98.6545 343.094 98.8679 343.228 99.0423C343.361 99.2167 343.548 99.3424 343.76 99.4Z" fill="#5461F2"/>
<path d="M425.53 102.9C425.742 102.842 425.929 102.717 426.062 102.542C426.196 102.368 426.268 102.154 426.268 101.935C426.268 101.715 426.196 101.502 426.062 101.328C425.929 101.153 425.742 101.028 425.53 100.97C425.318 101.028 425.131 101.153 424.998 101.328C424.864 101.502 424.792 101.715 424.792 101.935C424.792 102.154 424.864 102.368 424.998 102.542C425.131 102.717 425.318 102.842 425.53 102.9Z" fill="#5461F2"/>
<path d="M416.35 79.2801C416.562 79.2225 416.749 79.0968 416.882 78.9224C417.016 78.748 417.088 78.5346 417.088 78.3151C417.088 78.0956 417.016 77.8821 416.882 77.7077C416.749 77.5333 416.562 77.4077 416.35 77.3501C416.138 77.4077 415.951 77.5333 415.818 77.7077C415.684 77.8821 415.612 78.0956 415.612 78.3151C415.612 78.5346 415.684 78.748 415.818 78.9224C415.951 79.0968 416.138 79.2225 416.35 79.2801Z" fill="#5461F2"/>
<path d="M440.05 109.45C440.262 109.392 440.449 109.267 440.582 109.092C440.716 108.918 440.788 108.705 440.788 108.485C440.788 108.265 440.716 108.052 440.582 107.878C440.449 107.703 440.262 107.578 440.05 107.52C439.838 107.578 439.651 107.703 439.518 107.878C439.384 108.052 439.312 108.265 439.312 108.485C439.312 108.705 439.384 108.918 439.518 109.092C439.651 109.267 439.838 109.392 440.05 109.45Z" fill="#5461F2"/>
<path d="M232.25 88.47C232.462 88.4125 232.649 88.2868 232.782 88.1124C232.916 87.938 232.988 87.7246 232.988 87.505C232.988 87.2855 232.916 87.0721 232.782 86.8977C232.649 86.7233 232.462 86.5976 232.25 86.54C232.038 86.5976 231.851 86.7233 231.718 86.8977C231.585 87.0721 231.512 87.2855 231.512 87.505C231.512 87.7246 231.585 87.938 231.718 88.1124C231.851 88.2868 232.038 88.4125 232.25 88.47Z" fill="#5461F2"/>
<path d="M164.44 95.0799C164.652 95.0223 164.839 94.8967 164.972 94.7223C165.106 94.5479 165.178 94.3344 165.178 94.1149C165.178 93.8954 165.106 93.682 164.972 93.5076C164.839 93.3332 164.652 93.2075 164.44 93.1499C164.228 93.2075 164.041 93.3332 163.908 93.5076C163.775 93.682 163.702 93.8954 163.702 94.1149C163.702 94.3344 163.775 94.5479 163.908 94.7223C164.041 94.8967 164.228 95.0223 164.44 95.0799Z" fill="#5461F2"/>
<path d="M244.2 77.46C244.412 77.4025 244.599 77.2768 244.732 77.1024C244.866 76.928 244.938 76.7146 244.938 76.495C244.938 76.2755 244.866 76.0621 244.732 75.8877C244.599 75.7133 244.412 75.5876 244.2 75.53C243.988 75.5876 243.801 75.7133 243.668 75.8877C243.534 76.0621 243.462 76.2755 243.462 76.495C243.462 76.7146 243.534 76.928 243.668 77.1024C243.801 77.2768 243.988 77.4025 244.2 77.46Z" fill="#5461F2"/>
<path d="M197.7 100.71C197.912 100.652 198.099 100.527 198.232 100.352C198.366 100.178 198.438 99.9646 198.438 99.745C198.438 99.5255 198.366 99.3121 198.232 99.1377C198.099 98.9633 197.912 98.8376 197.7 98.78C197.488 98.8376 197.301 98.9633 197.168 99.1377C197.034 99.3121 196.962 99.5255 196.962 99.745C196.962 99.9646 197.034 100.178 197.168 100.352C197.301 100.527 197.488 100.652 197.7 100.71Z" fill="#5461F2"/>
<path d="M193.76 67.91C193.972 67.8524 194.159 67.7267 194.292 67.5523C194.426 67.3779 194.498 67.1645 194.498 66.945C194.498 66.7255 194.426 66.512 194.292 66.3376C194.159 66.1632 193.972 66.0376 193.76 65.98C193.548 66.0376 193.361 66.1632 193.228 66.3376C193.094 66.512 193.022 66.7255 193.022 66.945C193.022 67.1645 193.094 67.3779 193.228 67.5523C193.361 67.7267 193.548 67.8524 193.76 67.91Z" fill="#5461F2"/>
<path d="M272.91 95.46C273.122 95.4025 273.309 95.2768 273.442 95.1024C273.575 94.928 273.648 94.7146 273.648 94.495C273.648 94.2755 273.575 94.0621 273.442 93.8877C273.309 93.7133 273.122 93.5876 272.91 93.53C272.698 93.5876 272.511 93.7133 272.378 93.8877C272.244 94.0621 272.172 94.2755 272.172 94.495C272.172 94.7146 272.244 94.928 272.378 95.1024C272.511 95.2768 272.698 95.4025 272.91 95.46Z" fill="#5461F2"/>
<path d="M369.56 81.91C369.772 81.8524 369.959 81.7267 370.092 81.5523C370.226 81.3779 370.298 81.1645 370.298 80.945C370.298 80.7255 370.226 80.512 370.092 80.3376C369.959 80.1632 369.772 80.0376 369.56 79.98C369.348 80.0376 369.161 80.1632 369.028 80.3376C368.894 80.512 368.822 80.7255 368.822 80.945C368.822 81.1645 368.894 81.3779 369.028 81.5523C369.161 81.7267 369.348 81.8524 369.56 81.91Z" fill="#5461F2"/>
<path d="M369.56 108.15C369.776 108.096 369.968 107.971 370.105 107.795C370.242 107.619 370.317 107.403 370.317 107.18C370.317 106.957 370.242 106.741 370.105 106.565C369.968 106.389 369.776 106.264 369.56 106.21C369.344 106.264 369.152 106.389 369.015 106.565C368.878 106.741 368.803 106.957 368.803 107.18C368.803 107.403 368.878 107.619 369.015 107.795C369.152 107.971 369.344 108.096 369.56 108.15Z" fill="#5461F2"/>
<path d="M387.18 110.3C387.396 110.246 387.588 110.121 387.725 109.945C387.862 109.77 387.937 109.553 387.937 109.33C387.937 109.107 387.862 108.891 387.725 108.715C387.588 108.539 387.396 108.414 387.18 108.36C386.964 108.414 386.772 108.539 386.635 108.715C386.498 108.891 386.423 109.107 386.423 109.33C386.423 109.553 386.498 109.77 386.635 109.945C386.772 110.121 386.964 110.246 387.18 110.3Z" fill="#5461F2"/>
<path d="M405.16 102.77C405.376 102.716 405.568 102.591 405.705 102.415C405.842 102.24 405.917 102.023 405.917 101.8C405.917 101.577 405.842 101.361 405.705 101.185C405.568 101.009 405.376 100.884 405.16 100.83C404.944 100.884 404.752 101.009 404.615 101.185C404.478 101.361 404.403 101.577 404.403 101.8C404.403 102.023 404.478 102.24 404.615 102.415C404.752 102.591 404.944 102.716 405.16 102.77Z" fill="#5461F2"/>
<path d="M336.26 108.21C336.472 108.152 336.659 108.027 336.792 107.852C336.926 107.678 336.998 107.465 336.998 107.245C336.998 107.026 336.926 106.812 336.792 106.638C336.659 106.463 336.472 106.338 336.26 106.28C336.048 106.338 335.861 106.463 335.728 106.638C335.594 106.812 335.522 107.026 335.522 107.245C335.522 107.465 335.594 107.678 335.728 107.852C335.861 108.027 336.048 108.152 336.26 108.21Z" fill="#5461F2"/>
<path d="M255.5 90.91C255.712 90.8524 255.899 90.7267 256.032 90.5523C256.166 90.3779 256.238 90.1645 256.238 89.945C256.238 89.7255 256.166 89.512 256.032 89.3376C255.899 89.1632 255.712 89.0376 255.5 88.98C255.288 89.0376 255.101 89.1632 254.968 89.3376C254.835 89.512 254.762 89.7255 254.762 89.945C254.762 90.1645 254.835 90.3779 254.968 90.5523C255.101 90.7267 255.288 90.8524 255.5 90.91Z" fill="#5461F2"/>
<path d="M182.44 82.2601C182.656 82.2059 182.848 82.081 182.985 81.9053C183.122 81.7295 183.197 81.513 183.197 81.2901C183.197 81.0672 183.122 80.8506 182.985 80.6749C182.848 80.4991 182.656 80.3743 182.44 80.3201C182.224 80.3743 182.032 80.4991 181.895 80.6749C181.758 80.8506 181.683 81.0672 181.683 81.2901C181.683 81.513 181.758 81.7295 181.895 81.9053C182.032 82.081 182.224 82.2059 182.44 82.2601Z" fill="#5461F2"/>
<path d="M153.59 94.43C153.802 94.3724 153.989 94.2467 154.122 94.0723C154.255 93.898 154.328 93.6845 154.328 93.465C154.328 93.2455 154.255 93.032 154.122 92.8577C153.989 92.6833 153.802 92.5576 153.59 92.5C153.378 92.5576 153.191 92.6833 153.058 92.8577C152.924 93.032 152.852 93.2455 152.852 93.465C152.852 93.6845 152.924 93.898 153.058 94.0723C153.191 94.2467 153.378 94.3724 153.59 94.43Z" fill="#5461F2"/>
<path d="M120.8 111.28C121.012 111.223 121.199 111.097 121.332 110.922C121.466 110.748 121.538 110.535 121.538 110.315C121.538 110.096 121.466 109.882 121.332 109.708C121.199 109.533 121.012 109.408 120.8 109.35C120.588 109.408 120.401 109.533 120.268 109.708C120.134 109.882 120.062 110.096 120.062 110.315C120.062 110.535 120.134 110.748 120.268 110.922C120.401 111.097 120.588 111.223 120.8 111.28Z" fill="#5461F2"/>
<path d="M458.15 109.06C458.362 109.002 458.549 108.877 458.682 108.702C458.815 108.528 458.888 108.314 458.888 108.095C458.888 107.875 458.815 107.662 458.682 107.488C458.549 107.313 458.362 107.187 458.15 107.13C457.938 107.187 457.751 107.313 457.618 107.488C457.484 107.662 457.412 107.875 457.412 108.095C457.412 108.314 457.484 108.528 457.618 108.702C457.751 108.877 457.938 109.002 458.15 109.06Z" fill="#5461F2"/>
<path d="M230.83 107.89C231.042 107.832 231.229 107.707 231.362 107.532C231.496 107.358 231.568 107.144 231.568 106.925C231.568 106.705 231.496 106.492 231.362 106.318C231.229 106.143 231.042 106.018 230.83 105.96C230.618 106.018 230.431 106.143 230.298 106.318C230.164 106.492 230.092 106.705 230.092 106.925C230.092 107.144 230.164 107.358 230.298 107.532C230.431 107.707 230.618 107.832 230.83 107.89Z" fill="#5461F2"/>
<path d="M217.37 76.4901C217.582 76.4325 217.769 76.3068 217.902 76.1324C218.036 75.958 218.108 75.7446 218.108 75.5251C218.108 75.3055 218.036 75.0921 217.902 74.9177C217.769 74.7433 217.582 74.6176 217.37 74.5601C217.158 74.6176 216.971 74.7433 216.838 74.9177C216.705 75.0921 216.632 75.3055 216.632 75.5251C216.632 75.7446 216.705 75.958 216.838 76.1324C216.971 76.3068 217.158 76.4325 217.37 76.4901Z" fill="#5461F2"/>
<path d="M186 109.17C186.212 109.112 186.399 108.987 186.532 108.812C186.666 108.638 186.738 108.425 186.738 108.205C186.738 107.985 186.666 107.772 186.532 107.598C186.399 107.423 186.212 107.298 186 107.24C185.788 107.298 185.601 107.423 185.468 107.598C185.335 107.772 185.262 107.985 185.262 108.205C185.262 108.425 185.335 108.638 185.468 108.812C185.601 108.987 185.788 109.112 186 109.17Z" fill="#5461F2"/>
<path d="M378.52 92.2501C378.732 92.1925 378.919 92.0668 379.052 91.8924C379.186 91.718 379.258 91.5046 379.258 91.2851C379.258 91.0655 379.186 90.8521 379.052 90.6777C378.919 90.5033 378.732 90.3776 378.52 90.3201C378.308 90.3776 378.121 90.5033 377.988 90.6777C377.854 90.8521 377.782 91.0655 377.782 91.2851C377.782 91.5046 377.854 91.718 377.988 91.8924C378.121 92.0668 378.308 92.1925 378.52 92.2501Z" fill="#5461F2"/>
<path d="M355.24 97.18C355.452 97.1224 355.639 96.9967 355.772 96.8223C355.906 96.648 355.978 96.4345 355.978 96.215C355.978 95.9955 355.906 95.782 355.772 95.6077C355.639 95.4333 355.452 95.3076 355.24 95.25C355.028 95.3076 354.841 95.4333 354.708 95.6077C354.574 95.782 354.502 95.9955 354.502 96.215C354.502 96.4345 354.574 96.648 354.708 96.8223C354.841 96.9967 355.028 97.1224 355.24 97.18Z" fill="#5461F2"/>
<path d="M396.15 76.0001C396.362 75.9425 396.549 75.8168 396.682 75.6424C396.816 75.468 396.888 75.2546 396.888 75.0351C396.888 74.8155 396.816 74.6021 396.682 74.4277C396.549 74.2533 396.362 74.1276 396.15 74.0701C395.938 74.1276 395.751 74.2533 395.618 74.4277C395.484 74.6021 395.412 74.8155 395.412 75.0351C395.412 75.2546 395.484 75.468 395.618 75.6424C395.751 75.8168 395.938 75.9425 396.15 76.0001Z" fill="#5461F2"/>
<path d="M432.83 93.0001C433.042 92.9425 433.229 92.8168 433.362 92.6424C433.496 92.468 433.568 92.2546 433.568 92.0351C433.568 91.8155 433.496 91.6021 433.362 91.4277C433.229 91.2533 433.042 91.1276 432.83 91.0701C432.618 91.1276 432.431 91.2533 432.298 91.4277C432.165 91.6021 432.092 91.8155 432.092 92.0351C432.092 92.2546 432.165 92.468 432.298 92.6424C432.431 92.8168 432.618 92.9425 432.83 93.0001Z" fill="#5461F2"/>
<path d="M279.77 108.47C279.982 108.412 280.169 108.287 280.302 108.112C280.436 107.938 280.508 107.725 280.508 107.505C280.508 107.286 280.436 107.072 280.302 106.898C280.169 106.723 279.982 106.598 279.77 106.54C279.558 106.598 279.371 106.723 279.238 106.898C279.104 107.072 279.032 107.286 279.032 107.505C279.032 107.725 279.104 107.938 279.238 108.112C279.371 108.287 279.558 108.412 279.77 108.47Z" fill="#5461F2"/>
<path d="M141.3 102.69C141.516 102.636 141.708 102.511 141.845 102.335C141.982 102.159 142.057 101.943 142.057 101.72C142.057 101.497 141.982 101.281 141.845 101.105C141.708 100.929 141.516 100.804 141.3 100.75C141.084 100.804 140.892 100.929 140.755 101.105C140.618 101.281 140.543 101.497 140.543 101.72C140.543 101.943 140.618 102.159 140.755 102.335C140.892 102.511 141.084 102.636 141.3 102.69Z" fill="#5461F2"/>
<path d="M318.92 23.3299C317.625 23.3245 316.349 23.6334 315.2 24.2299C314.244 21.6115 312.506 19.3503 310.222 17.7529C307.938 16.1555 305.217 15.2991 302.43 15.2999C301.962 15.2981 301.495 15.3215 301.03 15.3699C299.768 12.372 297.587 9.85168 294.802 8.17173C292.017 6.49178 288.77 5.73881 285.53 6.02117C282.289 6.30353 279.222 7.60666 276.769 9.74304C274.316 11.8794 272.604 14.7389 271.88 17.9099C269.58 17.9887 267.365 18.8017 265.56 20.2299C264.486 18.4347 262.887 17.0116 260.98 16.1521C259.073 15.2927 256.948 15.038 254.891 15.4225C252.835 15.807 250.945 16.8122 249.477 18.3028C248.009 19.7934 247.033 21.6978 246.68 23.7599C245.526 23.3751 244.3 23.2536 243.092 23.4043C241.885 23.5551 240.726 23.9744 239.702 24.6313C238.678 25.2883 237.814 26.1663 237.173 27.2008C236.532 28.2354 236.132 29.4002 236 30.6099H327C326.788 28.6137 325.846 26.7662 324.354 25.4225C322.863 24.0788 320.927 23.3335 318.92 23.3299Z" fill="white"/>
<path d="M327 31.5801H236C235.863 31.5804 235.727 31.5525 235.6 31.4979C235.474 31.4433 235.361 31.3633 235.267 31.2629C235.173 31.1625 235.101 31.0438 235.055 30.9143C235.009 30.7848 234.99 30.6472 235 30.5101C235.231 28.27 236.285 26.1955 237.96 24.6895C239.634 23.1834 241.808 22.3532 244.06 22.3601C244.699 22.3618 245.335 22.4288 245.96 22.5601C246.597 20.1824 248.003 18.0822 249.958 16.5864C251.913 15.0907 254.308 14.2833 256.77 14.2901C258.522 14.3021 260.247 14.7212 261.809 15.5144C263.371 16.3075 264.727 17.4529 265.77 18.8601C267.358 17.815 269.178 17.1732 271.07 16.9901C271.958 13.7757 273.808 10.9099 276.371 8.77741C278.935 6.64494 282.09 5.34794 285.412 5.06056C288.735 4.77318 292.065 5.50918 294.957 7.16973C297.849 8.83029 300.164 11.3359 301.59 14.3501C304.531 14.1924 307.451 14.9285 309.966 16.4617C312.481 17.9949 314.473 20.2534 315.68 22.9401C316.702 22.5517 317.787 22.355 318.88 22.3601C321.142 22.3383 323.331 23.1617 325.018 24.6692C326.705 26.1767 327.768 28.2596 328 30.5101C328.012 30.6455 327.995 30.7819 327.952 30.9109C327.909 31.0398 327.84 31.1586 327.75 31.2601C327.654 31.3631 327.538 31.4449 327.409 31.5C327.28 31.5552 327.14 31.5824 327 31.5801ZM237.09 29.6501H325.84C325.568 28.6108 325.066 27.6459 324.371 26.8265C323.676 26.0071 322.806 25.354 321.825 24.9154C320.845 24.4769 319.778 24.264 318.704 24.2925C317.63 24.321 316.576 24.5901 315.62 25.0801C315.497 25.1432 315.363 25.1802 315.225 25.1888C315.088 25.1974 314.95 25.1774 314.82 25.1301C314.694 25.0776 314.581 24.9999 314.486 24.9019C314.392 24.8039 314.318 24.6876 314.27 24.5601C313.377 22.131 311.762 20.0334 309.642 18.5496C307.522 17.0657 304.998 16.2668 302.41 16.2601C301.976 16.2585 301.542 16.2819 301.11 16.3301C300.903 16.3481 300.695 16.3009 300.516 16.1951C300.336 16.0893 300.195 15.9303 300.11 15.7401C298.925 12.933 296.881 10.5739 294.271 9.00152C291.661 7.42918 288.619 6.72462 285.584 6.98905C282.549 7.25349 279.675 8.47332 277.376 10.4733C275.077 12.4732 273.472 15.1504 272.79 18.1201C272.737 18.3254 272.621 18.5087 272.457 18.6435C272.294 18.7783 272.092 18.8577 271.88 18.8701C269.795 18.9517 267.791 19.6981 266.16 21.0001C266.05 21.0839 265.924 21.1441 265.79 21.1768C265.656 21.2095 265.516 21.214 265.38 21.1901C265.247 21.1632 265.12 21.1094 265.009 21.0321C264.897 20.9547 264.802 20.8554 264.73 20.7401C263.756 19.1169 262.308 17.8306 260.582 17.0537C258.855 16.2768 256.933 16.0465 255.072 16.3936C253.211 16.7408 251.5 17.6489 250.17 18.996C248.84 20.3431 247.954 22.0648 247.63 23.9301C247.605 24.0678 247.55 24.1985 247.471 24.3139C247.392 24.4294 247.289 24.5268 247.17 24.6001C247.052 24.6745 246.918 24.7205 246.779 24.7344C246.641 24.7483 246.5 24.7297 246.37 24.6801C245.625 24.4302 244.845 24.3019 244.06 24.3001C242.472 24.2951 240.928 24.8179 239.67 25.7864C238.412 26.7549 237.511 28.114 237.11 29.6501H237.09Z" fill="#5461F2"/>
<path d="M419.75 40.2399C419.076 40.2419 418.405 40.3225 417.75 40.4799C417.075 38.9014 415.885 37.5983 414.375 36.7832C412.864 35.9681 411.121 35.6892 409.432 35.9921C407.742 36.295 406.205 37.1618 405.071 38.4509C403.938 39.74 403.274 41.3753 403.19 43.0899C401.732 42.4943 400.105 42.4635 398.626 43.0034C397.146 43.5434 395.921 44.6153 395.19 46.0099C394.49 45.5471 393.684 45.2681 392.848 45.1985C392.011 45.1289 391.171 45.271 390.404 45.6117C389.637 45.9524 388.968 46.4808 388.458 47.1481C387.949 47.8153 387.616 48.6001 387.49 49.4299H428.11C428.11 49.1599 428.11 48.8899 428.11 48.6199C428.11 46.4009 427.23 44.2724 425.663 42.7014C424.095 41.1304 421.969 40.2452 419.75 40.2399Z" fill="white"/>
<path d="M428.09 50.3901H387.47C387.33 50.3898 387.193 50.3602 387.065 50.3034C386.938 50.2466 386.823 50.1637 386.73 50.0601C386.643 49.9518 386.579 49.8265 386.543 49.6922C386.507 49.5579 386.499 49.4175 386.52 49.2801C386.666 48.3791 387.015 47.5232 387.542 46.7777C388.069 46.0321 388.758 45.4165 389.559 44.9778C390.359 44.539 391.249 44.2887 392.161 44.2457C393.072 44.2028 393.982 44.3685 394.82 44.7301C395.495 43.7677 396.394 42.9837 397.439 42.4455C398.484 41.9073 399.644 41.6309 400.82 41.6401C401.358 41.6396 401.895 41.6999 402.42 41.8201C402.761 40.0925 403.626 38.5119 404.898 37.294C406.169 36.0761 407.786 35.28 409.527 35.0143C411.267 34.7486 413.048 35.0262 414.625 35.8093C416.202 36.5923 417.499 37.8428 418.34 39.3901C418.82 39.3187 419.305 39.2819 419.79 39.2801C422.266 39.2827 424.64 40.2676 426.391 42.0186C428.142 43.7696 429.127 46.1438 429.13 48.6201C429.13 48.9201 429.13 49.2201 429.13 49.5201C429.098 49.7692 428.973 49.9971 428.78 50.1583C428.587 50.3195 428.341 50.4022 428.09 50.3901ZM388.77 48.4601H427.16C427.129 47.3547 426.851 46.2703 426.346 45.2862C425.842 44.302 425.124 43.4431 424.245 42.7721C423.366 42.1011 422.348 41.6351 421.266 41.4081C420.184 41.1811 419.064 41.1988 417.99 41.4601C417.767 41.5082 417.535 41.4789 417.332 41.3771C417.128 41.2753 416.965 41.107 416.87 40.9001C416.278 39.5258 415.238 38.3923 413.92 37.6838C412.602 36.9752 411.083 36.7334 409.61 36.9976C408.138 37.2619 406.797 38.0166 405.808 39.139C404.818 40.2615 404.237 41.6857 404.16 43.1801C404.15 43.3345 404.104 43.4844 404.026 43.618C403.948 43.7516 403.839 43.8653 403.71 43.9501C403.578 44.0283 403.431 44.0753 403.278 44.0874C403.126 44.0996 402.972 44.0765 402.83 44.0201C401.592 43.5041 400.206 43.4727 398.946 43.9322C397.686 44.3917 396.645 45.3084 396.03 46.5001C395.966 46.6186 395.88 46.723 395.775 46.8072C395.67 46.8914 395.549 46.9536 395.42 46.9901C395.288 47.0226 395.151 47.0278 395.017 47.0055C394.882 46.9831 394.754 46.9336 394.64 46.8601C394.157 46.5441 393.612 46.335 393.042 46.2468C392.471 46.1586 391.889 46.1933 391.333 46.3486C390.777 46.5039 390.261 46.7762 389.819 47.1473C389.377 47.5183 389.019 47.9796 388.77 48.5001V48.4601Z" fill="#5461F2"/>
<path d="M187 214.16C186.845 214.16 186.693 214.125 186.553 214.06C186.413 213.994 186.289 213.899 186.19 213.78C186.097 213.676 186.027 213.555 185.984 213.422C185.941 213.29 185.926 213.15 185.941 213.012C185.955 212.874 185.998 212.74 186.066 212.619C186.135 212.498 186.228 212.393 186.34 212.31L303.45 116.18C303.554 116.087 303.676 116.017 303.808 115.974C303.94 115.931 304.08 115.917 304.218 115.931C304.356 115.945 304.49 115.988 304.611 116.056C304.732 116.125 304.837 116.218 304.92 116.33C305.012 116.433 305.081 116.554 305.124 116.684C305.167 116.815 305.182 116.954 305.169 117.091C305.156 117.228 305.114 117.361 305.047 117.481C304.98 117.601 304.889 117.707 304.78 117.79L187.65 213.92C187.467 214.071 187.238 214.156 187 214.16Z" fill="#5461F2"/>
<path d="M445.23 217.84C444.98 217.845 444.737 217.756 444.55 217.59L327.94 117.78C327.836 117.691 327.751 117.582 327.689 117.46C327.628 117.338 327.591 117.204 327.581 117.068C327.57 116.931 327.587 116.794 327.63 116.664C327.673 116.534 327.741 116.414 327.83 116.31C327.919 116.206 328.028 116.121 328.15 116.06C328.273 115.998 328.406 115.961 328.542 115.951C328.679 115.94 328.816 115.957 328.946 116C329.076 116.043 329.196 116.111 329.3 116.2L445.9 216C446.096 216.121 446.243 216.306 446.319 216.523C446.394 216.74 446.392 216.977 446.314 217.193C446.235 217.409 446.084 217.591 445.887 217.709C445.689 217.827 445.458 217.873 445.23 217.84Z" fill="#5461F2"/>
<path d="M322.94 242.81H306.08L309.36 207.77H320.34L322.94 242.81Z" fill="#E8EBFC"/>
<path d="M322.94 243.77H306.08C305.947 243.768 305.816 243.74 305.694 243.687C305.572 243.633 305.462 243.556 305.37 243.46C305.277 243.363 305.206 243.246 305.163 243.118C305.119 242.99 305.105 242.854 305.12 242.72L308.4 207.72C308.432 207.478 308.551 207.256 308.735 207.096C308.919 206.935 309.156 206.848 309.4 206.85H320.4C320.647 206.849 320.886 206.939 321.071 207.103C321.256 207.267 321.373 207.494 321.4 207.74L323.99 242.74C324.005 243.004 323.915 243.263 323.74 243.46C323.638 243.568 323.513 243.652 323.375 243.705C323.237 243.759 323.088 243.781 322.94 243.77ZM307.14 241.84H321.9L319.45 208.74H310.24L307.14 241.84Z" fill="#5461F2"/>
<path d="M320.25 186.81H310.55L312.6 160.94H318.41L320.25 186.81Z" fill="#E8EBFC"/>
<path d="M320.25 187.78H310.55C310.417 187.778 310.286 187.75 310.164 187.697C310.042 187.643 309.932 187.566 309.84 187.47C309.752 187.371 309.685 187.255 309.642 187.13C309.599 187.005 309.581 186.872 309.59 186.74L311.59 160.86C311.617 160.614 311.734 160.387 311.919 160.223C312.104 160.059 312.343 159.968 312.59 159.97H318.4C318.649 159.969 318.889 160.06 319.074 160.227C319.259 160.393 319.375 160.622 319.4 160.87L321.24 186.74C321.24 187.005 321.135 187.26 320.947 187.447C320.76 187.635 320.505 187.74 320.24 187.74L320.25 187.78ZM311.6 185.85H319.21L317.51 161.9H313.51L311.6 185.85Z" fill="#5461F2"/>
<path d="M318.19 146.53H313L314.09 134.42H317.21L318.19 146.53Z" fill="#E8EBFC"/>
<path d="M318.19 147.49H313C312.867 147.488 312.736 147.46 312.614 147.407C312.492 147.353 312.382 147.276 312.29 147.18C312.197 147.083 312.126 146.966 312.083 146.838C312.039 146.71 312.025 146.574 312.04 146.44L313.13 134.33C313.159 134.086 313.278 133.862 313.462 133.699C313.647 133.537 313.884 133.448 314.13 133.45H317.25C317.497 133.448 317.736 133.539 317.921 133.703C318.106 133.867 318.223 134.094 318.25 134.34L319.25 146.45C319.25 146.715 319.145 146.97 318.957 147.157C318.77 147.345 318.515 147.45 318.25 147.45L318.19 147.49ZM314.06 145.56H317.14L316.32 135.39H315L314.06 145.56Z" fill="#5461F2"/>
<path d="M317.21 123.8H314.63L315.17 117.79H316.72L317.21 123.8Z" fill="#E8EBFC"/>
<path d="M317.21 124.77H314.63C314.496 124.771 314.362 124.743 314.24 124.688C314.117 124.633 314.008 124.552 313.92 124.45C313.827 124.355 313.756 124.24 313.713 124.113C313.67 123.987 313.655 123.853 313.67 123.72L314.21 117.72C314.239 117.476 314.358 117.252 314.542 117.089C314.727 116.927 314.964 116.838 315.21 116.84H316.76C317.006 116.838 317.243 116.927 317.428 117.089C317.612 117.252 317.731 117.476 317.76 117.72L318.25 123.72C318.259 123.852 318.241 123.985 318.198 124.11C318.155 124.236 318.088 124.351 318 124.45C317.9 124.558 317.777 124.643 317.641 124.699C317.504 124.754 317.357 124.778 317.21 124.77ZM315.69 122.84H316.16L315.94 120.08L315.69 122.84Z" fill="#5461F2"/>
<path d="M316.59 92.6299H316.95C320.385 92.6299 323.678 93.9943 326.107 96.4229C328.536 98.8514 329.9 102.145 329.9 105.58V116.78H303.64V105.58C303.64 102.145 305.004 98.8514 307.433 96.4229C309.862 93.9943 313.155 92.6299 316.59 92.6299Z" fill="#5461F2"/>
<path d="M245.67 137.25C253.871 137.25 260.52 128.573 260.52 117.87C260.52 107.167 253.871 98.49 245.67 98.49C237.469 98.49 230.82 107.167 230.82 117.87C230.82 128.573 237.469 137.25 245.67 137.25Z" fill="#C7CCFA"/>
<path d="M245.67 138.22C236.95 138.22 229.86 129.09 229.86 117.87C229.86 106.65 237 97.53 245.67 97.53C254.34 97.53 261.49 106.66 261.49 117.87C261.49 129.08 254.39 138.22 245.67 138.22ZM245.67 99.46C238.02 99.46 231.79 107.72 231.79 117.87C231.79 128.02 238.02 136.28 245.67 136.28C253.32 136.28 259.56 128.03 259.56 117.87C259.56 107.71 253.33 99.46 245.67 99.46Z" fill="#5461F2"/>
<path d="M245.67 147.42C245.405 147.42 245.15 147.315 244.963 147.127C244.775 146.94 244.67 146.685 244.67 146.42V110.32C244.63 110.172 244.624 110.016 244.654 109.865C244.683 109.715 244.747 109.573 244.841 109.451C244.934 109.328 245.054 109.229 245.192 109.161C245.33 109.093 245.481 109.058 245.635 109.058C245.789 109.058 245.94 109.093 246.078 109.161C246.216 109.229 246.336 109.328 246.429 109.451C246.523 109.573 246.587 109.715 246.616 109.865C246.646 110.016 246.64 110.172 246.6 110.32V146.42C246.601 146.674 246.505 146.918 246.332 147.104C246.16 147.289 245.923 147.402 245.67 147.42Z" fill="#5461F2"/>
<path d="M245.65 134.5C245.516 134.497 245.385 134.467 245.263 134.412C245.141 134.357 245.031 134.278 244.94 134.18L238.46 127C238.363 126.804 238.332 126.583 238.373 126.368C238.414 126.154 238.524 125.959 238.686 125.813C238.848 125.667 239.053 125.577 239.271 125.559C239.488 125.54 239.706 125.593 239.89 125.71L245.67 132.15L251.32 126.15C251.507 126.034 251.727 125.983 251.946 126.004C252.165 126.026 252.37 126.119 252.531 126.269C252.692 126.42 252.798 126.619 252.834 126.836C252.87 127.053 252.833 127.276 252.73 127.47L246.36 134.27C246.162 134.435 245.907 134.518 245.65 134.5Z" fill="#5461F2"/>
<path d="M245.64 125.92C245.506 125.917 245.375 125.887 245.253 125.832C245.131 125.777 245.021 125.698 244.93 125.6L240.17 120.29C240.073 120.095 240.043 119.873 240.083 119.658C240.124 119.444 240.234 119.249 240.396 119.103C240.558 118.957 240.763 118.867 240.981 118.849C241.198 118.83 241.416 118.883 241.6 119L245.66 123.53L249.66 119.3C249.847 119.184 250.067 119.133 250.286 119.154C250.505 119.176 250.71 119.269 250.871 119.419C251.032 119.57 251.138 119.769 251.174 119.986C251.21 120.203 251.174 120.426 251.07 120.62L246.38 125.62C246.284 125.718 246.169 125.795 246.041 125.847C245.914 125.899 245.777 125.923 245.64 125.92Z" fill="#5461F2"/>
<path d="M245.62 117.11C245.486 117.107 245.355 117.077 245.233 117.022C245.111 116.967 245.001 116.888 244.91 116.79L242.62 114.24C242.52 114.043 242.487 113.819 242.528 113.602C242.568 113.386 242.679 113.188 242.844 113.041C243.008 112.894 243.216 112.805 243.436 112.789C243.656 112.772 243.876 112.829 244.06 112.95L245.64 114.72L247.17 113.09C247.242 112.955 247.345 112.838 247.469 112.748C247.594 112.659 247.737 112.599 247.889 112.574C248.04 112.549 248.195 112.559 248.342 112.603C248.489 112.648 248.624 112.726 248.736 112.831C248.848 112.935 248.934 113.065 248.988 113.208C249.042 113.352 249.063 113.506 249.048 113.659C249.032 113.811 248.982 113.959 248.901 114.089C248.82 114.219 248.71 114.329 248.58 114.41L246.33 116.81C246.237 116.905 246.127 116.98 246.005 117.031C245.883 117.083 245.752 117.109 245.62 117.11Z" fill="#5461F2"/>
<path d="M390.95 147.12C401.007 147.12 409.16 136.482 409.16 123.36C409.16 110.238 401.007 99.6001 390.95 99.6001C380.893 99.6001 372.74 110.238 372.74 123.36C372.74 136.482 380.893 147.12 390.95 147.12Z" fill="#C7CCFA"/>
<path d="M391 148.08C380.42 148.08 371.82 136.99 371.82 123.36C371.82 109.73 380.42 98.6299 391 98.6299C401.58 98.6299 410.17 109.72 410.17 123.36C410.17 137 401.52 148.08 391 148.08ZM391 100.56C381.49 100.56 373.75 110.79 373.75 123.36C373.75 135.93 381.49 146.15 391 146.15C400.51 146.15 408.24 135.93 408.24 123.36C408.24 110.79 400.46 100.56 391 100.56Z" fill="#5461F2"/>
<path d="M391 159.37C390.735 159.37 390.48 159.265 390.293 159.077C390.105 158.889 390 158.635 390 158.37V114.13C389.96 113.982 389.954 113.826 389.984 113.675C390.013 113.524 390.077 113.382 390.171 113.26C390.264 113.138 390.384 113.039 390.522 112.971C390.66 112.903 390.811 112.868 390.965 112.868C391.119 112.868 391.27 112.903 391.408 112.971C391.546 113.039 391.666 113.138 391.759 113.26C391.853 113.382 391.917 113.524 391.946 113.675C391.976 113.826 391.97 113.982 391.93 114.13V158.4C391.923 158.648 391.824 158.885 391.652 159.064C391.48 159.244 391.248 159.353 391 159.37Z" fill="#5461F2"/>
<path d="M390.92 143.53C390.787 143.529 390.656 143.5 390.536 143.445C390.415 143.39 390.307 143.31 390.22 143.21L382.27 134.36C382.106 134.164 382.023 133.914 382.038 133.659C382.053 133.404 382.164 133.165 382.35 132.99C382.545 132.829 382.793 132.748 383.046 132.762C383.298 132.777 383.535 132.887 383.71 133.07L390.95 141.14L398.04 133.57C398.225 133.396 398.47 133.298 398.725 133.298C398.98 133.298 399.225 133.396 399.41 133.57C399.581 133.755 399.677 133.998 399.677 134.25C399.677 134.502 399.581 134.745 399.41 134.93L391.6 143.27C391.414 143.439 391.171 143.532 390.92 143.53Z" fill="#5461F2"/>
<path d="M390.91 133C390.776 132.997 390.645 132.967 390.523 132.912C390.401 132.857 390.291 132.778 390.2 132.68L384.36 126.17C384.198 125.976 384.115 125.729 384.128 125.476C384.141 125.224 384.249 124.986 384.43 124.81C384.624 124.645 384.874 124.56 385.129 124.573C385.384 124.586 385.624 124.696 385.8 124.88L390.93 130.61L395.93 125.25C396.109 125.072 396.348 124.967 396.6 124.958C396.852 124.949 397.099 125.035 397.29 125.2C397.471 125.379 397.577 125.62 397.587 125.875C397.596 126.13 397.508 126.378 397.34 126.57L391.59 132.7C391.41 132.884 391.167 132.991 390.91 133Z" fill="#5461F2"/>
<path d="M390.88 122.2C390.746 122.197 390.615 122.167 390.493 122.112C390.371 122.057 390.261 121.978 390.17 121.88L387.37 118.76C387.242 118.676 387.135 118.564 387.057 118.432C386.98 118.3 386.933 118.152 386.922 117.999C386.91 117.846 386.934 117.693 386.992 117.551C387.049 117.409 387.138 117.282 387.252 117.179C387.366 117.077 387.502 117.003 387.649 116.961C387.797 116.92 387.952 116.913 388.102 116.941C388.253 116.969 388.395 117.032 388.518 117.123C388.64 117.215 388.74 117.334 388.81 117.47L390.91 119.81L392.91 117.64C392.981 117.503 393.084 117.384 393.209 117.293C393.334 117.202 393.478 117.141 393.63 117.116C393.783 117.09 393.939 117.1 394.087 117.145C394.235 117.189 394.371 117.268 394.483 117.374C394.596 117.48 394.682 117.611 394.735 117.756C394.789 117.901 394.808 118.056 394.791 118.21C394.774 118.364 394.722 118.512 394.639 118.642C394.555 118.772 394.443 118.881 394.31 118.96L391.56 121.9C391.38 122.084 391.137 122.191 390.88 122.2Z" fill="#5461F2"/>
<path d="M160.6 181.58C177.008 181.58 190.31 164.222 190.31 142.81C190.31 121.398 177.008 104.04 160.6 104.04C144.192 104.04 130.89 121.398 130.89 142.81C130.89 164.222 144.192 181.58 160.6 181.58Z" fill="#C7CCFA"/>
<path d="M160.6 182.54C143.68 182.54 129.92 164.72 129.92 142.81C129.92 120.9 143.68 103.08 160.6 103.08C177.52 103.08 191.27 120.9 191.27 142.81C191.27 164.72 177.51 182.54 160.6 182.54ZM160.6 105.01C144.75 105.01 131.85 122.01 131.85 142.81C131.85 163.61 144.75 180.61 160.6 180.61C176.45 180.61 189.34 163.61 189.34 142.81C189.34 122.01 176.45 105 160.6 105V105.01Z" fill="#5461F2"/>
<path d="M160.6 201C160.335 201 160.08 200.895 159.893 200.707C159.705 200.52 159.6 200.265 159.6 200V127.76C159.56 127.612 159.554 127.456 159.584 127.305C159.613 127.155 159.677 127.013 159.771 126.89C159.864 126.768 159.984 126.669 160.122 126.601C160.26 126.533 160.411 126.498 160.565 126.498C160.719 126.498 160.87 126.533 161.008 126.601C161.146 126.669 161.266 126.768 161.359 126.89C161.453 127.013 161.517 127.155 161.546 127.305C161.576 127.456 161.57 127.612 161.53 127.76V200C161.531 200.254 161.435 200.498 161.262 200.684C161.09 200.869 160.853 200.982 160.6 201Z" fill="#5461F2"/>
<path d="M160.56 175.12C160.426 175.115 160.293 175.084 160.171 175.027C160.049 174.971 159.94 174.89 159.85 174.79L146.85 160.35C146.722 160.266 146.615 160.153 146.537 160.021C146.46 159.889 146.413 159.741 146.402 159.589C146.391 159.436 146.414 159.283 146.472 159.141C146.529 158.999 146.618 158.872 146.732 158.769C146.846 158.667 146.982 158.593 147.129 158.551C147.277 158.51 147.432 158.503 147.582 158.531C147.733 158.559 147.875 158.621 147.998 158.713C148.12 158.805 148.22 158.923 148.29 159.06L160.54 172.72L172.54 159.89C172.727 159.774 172.947 159.723 173.166 159.744C173.385 159.766 173.59 159.859 173.751 160.009C173.912 160.16 174.018 160.359 174.054 160.576C174.09 160.793 174.054 161.016 173.95 161.21L161.2 174.81C161.032 174.988 160.804 175.098 160.56 175.12Z" fill="#5461F2"/>
<path d="M160.53 158C160.396 157.997 160.265 157.967 160.143 157.912C160.021 157.857 159.911 157.778 159.82 157.68L150.28 147C150.18 146.803 150.147 146.579 150.188 146.362C150.228 146.145 150.339 145.948 150.504 145.801C150.668 145.654 150.876 145.565 151.096 145.548C151.316 145.532 151.536 145.589 151.72 145.71L160.55 155.55L169.2 146.32C169.379 146.141 169.618 146.037 169.87 146.028C170.122 146.019 170.369 146.105 170.56 146.27C170.741 146.449 170.847 146.69 170.857 146.945C170.866 147.2 170.778 147.448 170.61 147.64L161.23 157.64C161.144 157.744 161.037 157.83 160.917 157.892C160.797 157.954 160.665 157.99 160.53 158Z" fill="#5461F2"/>
<path d="M160.49 140.32C160.356 140.317 160.225 140.287 160.103 140.232C159.981 140.177 159.871 140.098 159.78 140L155.21 134.9C155.08 134.817 154.97 134.706 154.89 134.574C154.81 134.442 154.761 134.293 154.748 134.14C154.735 133.986 154.757 133.831 154.814 133.688C154.871 133.544 154.96 133.416 155.074 133.312C155.189 133.209 155.326 133.133 155.475 133.092C155.623 133.05 155.78 133.043 155.931 133.072C156.083 133.101 156.226 133.165 156.349 133.258C156.472 133.351 156.571 133.472 156.64 133.61L160.51 137.92L164.29 133.92C164.478 133.801 164.7 133.748 164.921 133.769C165.142 133.79 165.35 133.884 165.512 134.037C165.674 134.189 165.78 134.391 165.814 134.611C165.848 134.831 165.808 135.056 165.7 135.25L161.2 140.04C161.108 140.134 160.997 140.208 160.875 140.256C160.753 140.304 160.621 140.326 160.49 140.32Z" fill="#5461F2"/>
<path d="M474.36 179.88C491.05 179.88 504.58 162.222 504.58 140.44C504.58 118.658 491.05 101 474.36 101C457.67 101 444.14 118.658 444.14 140.44C444.14 162.222 457.67 179.88 474.36 179.88Z" fill="#C7CCFA"/>
<path d="M474.36 180.85C457.16 180.85 443.17 162.72 443.17 140.44C443.17 118.16 457.17 100.04 474.36 100.04C491.55 100.04 505.55 118.16 505.55 140.44C505.55 162.72 491.56 180.85 474.36 180.85ZM474.36 101.97C458.23 101.97 445.1 119.23 445.1 140.44C445.1 161.65 458.23 178.91 474.36 178.91C490.49 178.91 503.62 161.66 503.62 140.44C503.62 119.22 490.5 102 474.36 102V101.97Z" fill="#5461F2"/>
<path d="M474.36 199.57C474.095 199.57 473.84 199.465 473.653 199.277C473.465 199.089 473.36 198.835 473.36 198.57V125.13C473.32 124.982 473.314 124.826 473.344 124.675C473.373 124.524 473.437 124.382 473.531 124.26C473.624 124.138 473.744 124.039 473.882 123.971C474.02 123.903 474.171 123.868 474.325 123.868C474.479 123.868 474.63 123.903 474.768 123.971C474.906 124.039 475.026 124.138 475.119 124.26C475.213 124.382 475.277 124.524 475.306 124.675C475.336 124.826 475.33 124.982 475.29 125.13V198.61C475.281 198.856 475.181 199.091 475.009 199.268C474.837 199.445 474.606 199.553 474.36 199.57Z" fill="#5461F2"/>
<path d="M474.32 173.29C474.187 173.289 474.056 173.26 473.936 173.205C473.815 173.15 473.707 173.07 473.62 172.97L460.43 158.27C460.33 158.073 460.297 157.849 460.338 157.632C460.378 157.415 460.489 157.218 460.654 157.071C460.818 156.924 461.026 156.835 461.246 156.818C461.466 156.802 461.686 156.859 461.87 156.98L474.35 170.89L486.6 157.83C486.787 157.714 487.007 157.663 487.226 157.684C487.445 157.706 487.65 157.799 487.811 157.949C487.972 158.1 488.078 158.299 488.114 158.516C488.15 158.733 488.114 158.956 488.01 159.15L475 173C474.819 173.18 474.575 173.284 474.32 173.29Z" fill="#5461F2"/>
<path d="M474.29 155.83C474.157 155.829 474.026 155.8 473.906 155.745C473.785 155.69 473.677 155.61 473.59 155.51L463.89 144.7C463.79 144.504 463.757 144.279 463.798 144.063C463.838 143.846 463.949 143.648 464.114 143.501C464.278 143.354 464.486 143.265 464.706 143.249C464.926 143.232 465.146 143.289 465.33 143.41L474.33 153.41L483.15 144.01C483.337 143.898 483.555 143.851 483.771 143.874C483.988 143.898 484.191 143.992 484.349 144.141C484.507 144.29 484.613 144.487 484.649 144.702C484.685 144.916 484.65 145.137 484.55 145.33L475 155.52C474.908 155.616 474.798 155.693 474.676 155.747C474.554 155.8 474.423 155.828 474.29 155.83Z" fill="#5461F2"/>
<path d="M474.25 137.89C474.117 137.889 473.986 137.86 473.866 137.805C473.745 137.75 473.637 137.67 473.55 137.57L468.89 132.38C468.79 132.184 468.757 131.959 468.798 131.742C468.838 131.526 468.949 131.328 469.114 131.181C469.278 131.034 469.486 130.945 469.706 130.929C469.926 130.912 470.146 130.969 470.33 131.09L474.28 135.5L478.14 131.38C478.327 131.264 478.547 131.213 478.766 131.234C478.985 131.256 479.19 131.349 479.351 131.5C479.512 131.65 479.618 131.849 479.654 132.066C479.69 132.283 479.654 132.506 479.55 132.7L475 137.58C474.904 137.681 474.787 137.761 474.658 137.815C474.529 137.868 474.39 137.894 474.25 137.89Z" fill="#5461F2"/>
</svg>
