<svg id="Layer_1" data-name="Layer 1" xmlns="http://www.w3.org/2000/svg" viewBox="0 0 445.36 350"><defs><style>.cls-1{fill:#545dfc;}.cls-2{fill:#c7ccff;}.cls-3{fill:#e9ecff;}.cls-4{fill:#fff;}</style></defs><path class="cls-1" d="M418.73,112.37h0a12.88,12.88,0,0,0,5.11,5.11h0a.38.38,0,0,1,0,.66h0a12.82,12.82,0,0,0-5.11,5.11h0a.38.38,0,0,1-.66,0h0a12.88,12.88,0,0,0-5.11-5.11h0a.38.38,0,0,1,0-.66h0a13,13,0,0,0,5.11-5.11h0A.38.38,0,0,1,418.73,112.37Z"/><path class="cls-1" d="M152.52,47h0a12.88,12.88,0,0,0,5.11,5.11h0a.37.37,0,0,1,0,.65h0a12.85,12.85,0,0,0-5.11,5.12h0a.38.38,0,0,1-.66,0h0a12.85,12.85,0,0,0-5.11-5.12h0a.37.37,0,0,1,0-.65h0A12.88,12.88,0,0,0,151.86,47h0A.37.37,0,0,1,152.52,47Z"/><path class="cls-1" d="M342.71,37a10.73,10.73,0,0,0,1.58,1.58,11.17,11.17,0,0,0-1.58,1.57,11.65,11.65,0,0,0-1.57-1.57A11.17,11.17,0,0,0,342.71,37m0-2.67a.29.29,0,0,0-.25.15,9.7,9.7,0,0,1-3.85,3.85.29.29,0,0,0,0,.5,9.64,9.64,0,0,1,3.85,3.85.29.29,0,0,0,.25.15.27.27,0,0,0,.25-.15,9.7,9.7,0,0,1,3.85-3.85.28.28,0,0,0,0-.5A9.77,9.77,0,0,1,343,34.45a.27.27,0,0,0-.25-.15Z"/><path class="cls-2" d="M267,19.31h0a23.18,23.18,0,0,0,9.2,9.19h0a.69.69,0,0,1,0,1.19h0a23.18,23.18,0,0,0-9.2,9.19h0a.67.67,0,0,1-1.18,0h0a23.09,23.09,0,0,0-9.19-9.19h0a.68.68,0,0,1,0-1.19h0a23.09,23.09,0,0,0,9.19-9.19h0A.67.67,0,0,1,267,19.31Z"/><path class="cls-3" d="M45.66,200.62a1.91,1.91,0,0,1-1.67-1,21.81,21.81,0,0,0-8.7-8.7,1.9,1.9,0,0,1,0-3.33,21.81,21.81,0,0,0,8.7-8.7,1.9,1.9,0,0,1,3.33,0h0A21.77,21.77,0,0,0,56,187.6a1.9,1.9,0,0,1,0,3.33,21.77,21.77,0,0,0-8.71,8.7A1.89,1.89,0,0,1,45.66,200.62Zm-8.37-11.36a24.38,24.38,0,0,1,8.37,8.37A24.35,24.35,0,0,1,54,189.26a24.24,24.24,0,0,1-8.36-8.36A24.27,24.27,0,0,1,37.29,189.26Z"/><circle class="cls-1" cx="7.38" cy="143.42" r="2.99"/><circle class="cls-1" cx="199.88" cy="7.7" r="2.99"/><path class="cls-1" d="M79.62,56.79a5.52,5.52,0,1,1,5.52-5.52A5.53,5.53,0,0,1,79.62,56.79Zm0-8.61a3.09,3.09,0,1,0,3.08,3.09A3.09,3.09,0,0,0,79.62,48.18Z"/><path class="cls-1" d="M351.15,94.24a5.52,5.52,0,1,1,5.52-5.52A5.52,5.52,0,0,1,351.15,94.24Zm0-8.6a3.08,3.08,0,1,0,3.08,3.08A3.08,3.08,0,0,0,351.15,85.64Z"/><path class="cls-4" d="M138.67,112.54a26,26,0,0,0-6.15.74,23.45,23.45,0,0,0-45,8,19.53,19.53,0,0,0-24.81,9,15.52,15.52,0,0,0-23.8,10.56H164.44c.08-.82.12-1.66.12-2.5A25.88,25.88,0,0,0,138.67,112.54Z"/><path class="cls-1" d="M164.44,142.71H38.92a1.77,1.77,0,0,1-1.36-.63,1.79,1.79,0,0,1-.41-1.44,17.3,17.3,0,0,1,24.91-12.72,21.26,21.26,0,0,1,18-9.87,21,21,0,0,1,5.92.84,25.25,25.25,0,0,1,47.58-7.66,27.68,27.68,0,0,1,32.81,27.19c0,.87,0,1.77-.13,2.67A1.79,1.79,0,0,1,164.44,142.71ZM41.17,139.13H162.76c0-.24,0-.48,0-.71a24.13,24.13,0,0,0-24.1-24.1,24.74,24.74,0,0,0-5.73.69,1.77,1.77,0,0,1-2.06-1,21.67,21.67,0,0,0-41.57,7.44,1.79,1.79,0,0,1-.83,1.42,1.74,1.74,0,0,1-1.64.14,17.76,17.76,0,0,0-22.54,8.2,1.78,1.78,0,0,1-1.13.91,1.84,1.84,0,0,1-1.43-.23,13.74,13.74,0,0,0-20.57,7.27Z"/><path class="cls-4" d="M379.78,154.81a15,15,0,0,1,3.62.44A13.8,13.8,0,0,1,409.88,160a11.29,11.29,0,0,1,4.4-.88,11.46,11.46,0,0,1,10.19,6.19,9.14,9.14,0,0,1,14,6.21H364.61c0-.48-.07-1-.07-1.47A15.23,15.23,0,0,1,379.78,154.81Z"/><path class="cls-1" d="M438.48,173.3H364.61a1.79,1.79,0,0,1-1.78-1.62c-.05-.55-.08-1.1-.08-1.64a17,17,0,0,1,17-17,16.31,16.31,0,0,1,2.61.21,15.6,15.6,0,0,1,29,4.41,13.27,13.27,0,0,1,13.73,5.29,10.92,10.92,0,0,1,15.13,8.3,1.79,1.79,0,0,1-1.77,2.07Zm-72.14-3.57h69.73a7.36,7.36,0,0,0-10.62-2.93,1.79,1.79,0,0,1-2.56-.67,9.71,9.71,0,0,0-12.33-4.49,1.79,1.79,0,0,1-2.47-1.56A12,12,0,0,0,385,156a1.78,1.78,0,0,1-2.07,1,13.71,13.71,0,0,0-3.19-.38A13.45,13.45,0,0,0,366.34,169.73Z"/><path class="cls-4" d="M421.66,252.35a14.81,14.81,0,0,0-6.77,1.64,24.71,24.71,0,0,0-23.21-16.24c-.86,0-1.71.05-2.55.13a28,28,0,0,0-53,4.62,19.67,19.67,0,0,0-11.5,4.23,18.62,18.62,0,0,0-34.33,6.42,14.78,14.78,0,0,0-19.5,12.46h165.6A14.82,14.82,0,0,0,421.66,252.35Z"/><path class="cls-1" d="M436.39,267.4H270.79a1.8,1.8,0,0,1-1.33-.6,1.82,1.82,0,0,1-.45-1.38,16.56,16.56,0,0,1,16.51-14.85,16.37,16.37,0,0,1,3.43.36,20.42,20.42,0,0,1,36.13-6.74,21.35,21.35,0,0,1,9.62-3.39,29.75,29.75,0,0,1,55.55-4.8,26.58,26.58,0,0,1,25.61,15.61,16.62,16.62,0,0,1,22.31,13.81,1.8,1.8,0,0,1-1.78,2Zm-163.46-3.58H434.25a13,13,0,0,0-18.54-8.24,1.76,1.76,0,0,1-1.47.08,1.81,1.81,0,0,1-1-1,23,23,0,0,0-21.53-15.07,23.66,23.66,0,0,0-2.37.12,1.8,1.8,0,0,1-1.83-1.08,26.16,26.16,0,0,0-49.62,4.32,1.79,1.79,0,0,1-1.68,1.39,17.83,17.83,0,0,0-10.45,3.84,1.79,1.79,0,0,1-1.43.36,1.84,1.84,0,0,1-1.21-.84,16.83,16.83,0,0,0-31,5.8,1.8,1.8,0,0,1-.85,1.23,1.78,1.78,0,0,1-1.49.16,13,13,0,0,0-16.79,9Z"/><circle class="cls-4" cx="235.8" cy="146.4" r="83.5"/><path class="cls-1" d="M235.8,231.69a85.29,85.29,0,1,1,85.29-85.29A85.38,85.38,0,0,1,235.8,231.69Zm0-167a81.71,81.71,0,1,0,81.71,81.7A81.79,81.79,0,0,0,235.8,64.7Z"/><path class="cls-2" d="M212.88,66.32c.83,12.9-3.14,25.74-9.08,37.23-1.85,3.58-3.92,7.13-4.8,11.06s-.36,8.44,2.43,11.35,7.26,3.6,11.34,3.63,8.3-.36,12.12,1.06,7.11,5.45,6,9.38c-.68,2.38-2.72,4.07-4.17,6.07-3.94,5.42-3.38,12.73-3.55,19.43a75,75,0,0,1-8.08,32c-2.77,5.47-8,11.33-13.89,9.64-3.47-1-.78-23.47-.52-26.27.4-4.35-2.54-8.29-5.74-11.27s-6.91-5.63-8.88-9.53c-2.48-4.9-1.8-11-4.57-15.74-2.93-5-8.89-7.24-14.21-9.6s-10.43-5.14-11.31-10.89a89.43,89.43,0,0,1,21-36.82A76.89,76.89,0,0,1,212.88,66.32Z"/><path class="cls-1" d="M211.1,66.32c.68,11.24-2.25,22.37-7,32.51-2.34,5-5.65,9.83-6.86,15.3-1,4.66-.38,10.16,3.32,13.51s8.89,3.78,13.66,3.74,10.82-.48,13.94,3.92a4.87,4.87,0,0,1,.41,5.5c-1.16,2-3,3.49-4.14,5.47-2.63,4.38-2.95,9.67-3,14.66a92.63,92.63,0,0,1-1.27,16,73.36,73.36,0,0,1-4.88,15.95c-1.88,4.27-4.18,9-8.31,11.55a7,7,0,0,1-5.31.93,2.63,2.63,0,0,1,.34.18c-.14-.14-.12-.27.08.12l-.09-.15s-.11-.21-.13-.24c-.17-.32.13.41,0,0-.06-.22-.14-.44-.2-.67s-.12-.52-.16-.79c0-.09,0-.19-.05-.28-.08-.5,0,.38,0-.13-.08-.68-.13-1.36-.17-2-.08-1.54-.07-3.08,0-4.61.07-3.18.3-6.35.58-9.52.18-2.1.42-4.19.61-6.28.45-4.91-2.62-9.25-6-12.48s-7.92-6.25-9.53-11.09-1.35-10.07-4.11-14.43c-2.54-4-6.77-6.36-11-8.26-3.95-1.78-8.48-3.27-11.6-6.41a9,9,0,0,1-2.53-5v1a59.76,59.76,0,0,1,2.58-7.72,91.13,91.13,0,0,1,9.16-17.46A75.74,75.74,0,0,1,204.12,71a55.27,55.27,0,0,1,9.24-3c2.25-.46,1.3-3.91-1-3.45a49.58,49.58,0,0,0-6.1,1.79,82.82,82.82,0,0,0-14.46,6.7,81,81,0,0,0-29.65,31.06,95.88,95.88,0,0,0-6.4,14.21c-.46,1.3-.89,2.61-1.27,3.94a5.47,5.47,0,0,0,0,3.44c2,6.52,8.8,9.19,14.47,11.69,3,1.31,6.06,2.68,8.49,4.87,2.58,2.34,3.67,5.33,4.33,8.68.71,3.6,1.12,7.31,3,10.57s4.67,5.59,7.39,8,5.37,4.89,6.38,8.32a12.69,12.69,0,0,1,.09,5.1c-.43,4.18-.8,8.38-1,12.59a60.73,60.73,0,0,0,0,6.61,12.84,12.84,0,0,0,1.06,5c1.16,2.18,4,2.22,6.19,1.85,3.22-.56,6-2.82,8.06-5.26a37.45,37.45,0,0,0,5.45-9.41,77.48,77.48,0,0,0,4-11.59,78.73,78.73,0,0,0,2.1-12.1c.37-3.81.3-7.61.42-11.42.1-3.34.37-6.88,1.82-9.94s4.64-5.29,5.68-8.68-.48-6.8-2.9-9.07c-2.88-2.71-6.7-3.58-10.55-3.76-5.91-.27-15.57,1.41-18.09-5.89s2.93-14.39,5.89-20.63a80.05,80.05,0,0,0,7.25-23.13,59.47,59.47,0,0,0,.51-11.85C214.53,64,211,64,211.1,66.32Z"/><path class="cls-2" d="M259.44,66.32c-8.66,11.46-17.66,23.82-18.63,38.15-.25,3.63.43,7.94,3.63,9.66a10.71,10.71,0,0,0,5.48.82c5.61-.18,11.53-.69,16.13-3.92,3.07-2.15,5.32-5.37,8.54-7.3,8.64-5.16,21.73.66,28.46-6.84,0,0-5.48-8.6-19.2-18.71C273.28,70.39,259.44,66.32,259.44,66.32Z"/><path class="cls-1" d="M257.89,65.41c-5.28,7-10.59,14.14-14.28,22.15a49.84,49.84,0,0,0-4,12.36c-.65,3.73-1.1,7.86.35,11.46a8.3,8.3,0,0,0,3.49,4.23,12.3,12.3,0,0,0,6.5,1.13c4.28-.13,8.74-.43,12.78-2a20.54,20.54,0,0,0,5.67-3.27c1.63-1.33,3-2.9,4.6-4.31a15.6,15.6,0,0,1,9.31-3.92c7.39-.74,16.42,1,22-5.11a1.83,1.83,0,0,0,.28-2.17c-2.92-4.58-7-8.59-11-12.21A89.4,89.4,0,0,0,280,73.5,91.7,91.7,0,0,0,267,67.12c-2.32-.93-4.67-1.82-7.06-2.53-2.21-.65-3.16,2.8-1,3.45A84.16,84.16,0,0,1,298.55,94c.47.56.94,1.12,1.4,1.7l.26.33c.21.26-.18-.25.12.15l.39.53c.27.36.54.73.78,1.11l.28-2.16c-4.32,4.7-11.67,3.61-17.42,3.91a24.48,24.48,0,0,0-9.73,2.14c-3.6,1.77-5.93,5.1-9.05,7.5s-7,3.3-10.74,3.68a57.63,57.63,0,0,1-6.16.32c-1.7,0-3.47-.23-4.61-1.63-2-2.48-1.64-6.4-1.25-9.33a43.94,43.94,0,0,1,3.25-11.45c3.66-8.58,9.33-16.15,14.91-23.55a1.81,1.81,0,0,0-.64-2.45A1.84,1.84,0,0,0,257.89,65.41Z"/><path class="cls-2" d="M283.86,214.37c-6.07-25.8,10.92-27.77,12.51-38.28,1.47-9.69-27.31-17.7-21.24-35.91,1.14-3.42,15-12.56,18.4-13.81,7.32-2.71,14.35-4.36,22.11-3.47,0,0,8.89,24.5-.21,50.17C305.3,201.62,283.86,214.37,283.86,214.37Z"/><path class="cls-1" d="M285.58,213.89c-1.24-5.34-1.85-11-.39-16.29a18.82,18.82,0,0,1,2.21-5.12,24.82,24.82,0,0,1,2.9-4c3.75-4.4,10.08-10,7.13-16.4-1.42-3.08-4.3-5.44-6.83-7.58a101.9,101.9,0,0,1-9.31-8.31,22.19,22.19,0,0,1-3.52-4.78A11.26,11.26,0,0,1,276.7,149c-.14-.44-.27-.89-.37-1.34a7.44,7.44,0,0,1-.2-1.29,14.18,14.18,0,0,1,.05-3c.05-.35.18-1,.29-1.42l.24-.86c.05-.14.1-.28.14-.43.08-.3-.16.29-.05.12s.29-.5.46-.74c-.25.35.09-.09.17-.18l.48-.53a31.55,31.55,0,0,1,2.33-2.15,77.27,77.27,0,0,1,11.65-8c.68-.38,1.38-.73,2.08-1.07.28-.14-.39.11,0,0s.84-.31,1.26-.46c1-.36,2-.69,3-1a46,46,0,0,1,11.37-2.15,38.37,38.37,0,0,1,6,.21l-1.72-1.31a66.37,66.37,0,0,1,2.92,12.52,78.79,78.79,0,0,1-.93,29.12c-3.74,16.22-13.16,31.22-25.6,42.2q-1.5,1.32-3.06,2.55c-.1.09-.76.6-.38.31l-.7.52c-.34.26-.7.52-1.05.77-.71.51-1.42,1-2.16,1.45-2,1.18-.18,4.27,1.8,3.09a51.09,51.09,0,0,0,6.66-4.95,87.18,87.18,0,0,0,26.84-40.84,79.68,79.68,0,0,0,2.51-31.48,71.09,71.09,0,0,0-3.4-16.21,1.91,1.91,0,0,0-1.73-1.32,41.48,41.48,0,0,0-12.23.55,52.56,52.56,0,0,0-11.05,3.27,58.69,58.69,0,0,0-11,6.9,49.3,49.3,0,0,0-5.63,4.65,9.43,9.43,0,0,0-2.76,4.93,17,17,0,0,0,2.32,12.82,41.73,41.73,0,0,0,8.86,9.52c2.94,2.5,6.14,4.83,8.66,7.77l.38.45c.28.35-.1-.15.15.21s.44.62.63.95c.09.15.16.3.25.45s.26.59.08.14a7.83,7.83,0,0,1,.29.9,4.14,4.14,0,0,1,.09.46c-.09-.53,0-.05,0,.09v.46c0,.5.08-.29,0,.26A11.31,11.31,0,0,1,294,178c.17-.42,0,.07-.08.18s-.15.32-.24.47c-.17.34-.36.66-.56,1s-.39.6-.6.9l-.29.38c-.19.26,0,0,0,0a4,4,0,0,1-.26.32c-1,1.23-2.06,2.39-3.12,3.56a32.94,32.94,0,0,0-6.3,9.49c-2,4.93-2.11,10.36-1.39,15.57.23,1.71.55,3.4.94,5.07C282.65,217.08,286.1,216.13,285.58,213.89Z"/><path class="cls-3" d="M95.11,248.77s25.08,17.51,26.41,19.21,9.69,27.75,9.69,27.75l7.13-6.29a11.3,11.3,0,0,0,3.81-8.27l.24-14.19,36.73-28.11,23.91,62a2.76,2.76,0,0,0,4.27,1.19l.45-.34a24.6,24.6,0,0,0,9.44-21.68l-6.12-66.75,35.93-28a13.35,13.35,0,0,0,2.44-18.59h0a13.35,13.35,0,0,0-18.65-2.62l-36.65,27.49-64.62-22a24.54,24.54,0,0,0-22.81,3.73h0a2.76,2.76,0,0,0,.07,4.45l55.41,39.67-35.78,27.48-14.63-3.55a11.28,11.28,0,0,0-9.42,1.94Z"/><path class="cls-1" d="M205.62,304.45a4.41,4.41,0,0,1-1.24-.17,4.49,4.49,0,0,1-3-2.75l-23.05-59.79-34.15,26.13-.22,13.33a13.1,13.1,0,0,1-4.42,9.58l-7.13,6.29a1.79,1.79,0,0,1-2.89-.8c-3.83-12-8.4-25.55-9.39-27.19-1.49-1.53-16.7-12.34-26-18.85a1.77,1.77,0,0,1-.76-1.43,1.79,1.79,0,0,1,.72-1.46l7.24-5.44a13,13,0,0,1,10.92-2.24L126,243l33.19-25.49-53.45-38.26a4.56,4.56,0,0,1-.12-7.33,26.3,26.3,0,0,1,24.48-4l63.72,21.67,35.9-26.92a15.14,15.14,0,0,1,18.38,24.05l-35.16,27.4,6,65.78a26.23,26.23,0,0,1-10.13,23.25l-.45.35A4.49,4.49,0,0,1,205.62,304.45Zm-26.5-67.37a2,2,0,0,1,.49.06,1.82,1.82,0,0,1,1.18,1.08l23.9,62a1,1,0,0,0,.65.59,1,1,0,0,0,.87-.17l.44-.35a22.66,22.66,0,0,0,8.76-20.09l-6.12-66.76a1.77,1.77,0,0,1,.68-1.57l35.94-28a11.56,11.56,0,0,0-14-18.36L195.21,193a1.8,1.8,0,0,1-1.65.26l-64.62-22a22.74,22.74,0,0,0-21.15,3.46.94.94,0,0,0-.38.8,1,1,0,0,0,.41.78L163.23,216a1.8,1.8,0,0,1,.75,1.42,1.78,1.78,0,0,1-.7,1.45L127.5,246.35a1.77,1.77,0,0,1-1.51.32l-14.64-3.54a9.46,9.46,0,0,0-7.92,1.63l-5.27,4c7.43,5.21,23.51,16.56,24.77,18.16s6.32,16.93,9.14,25.7l5.08-4.48a9.48,9.48,0,0,0,3.21-7L140.6,267a1.79,1.79,0,0,1,.7-1.39L178,237.45A1.72,1.72,0,0,1,179.12,237.08Zm-59,32h0Z"/><path class="cls-1" d="M38.1,264.67a1.78,1.78,0,0,1-1.43-.71,1.8,1.8,0,0,1,.36-2.51l66.05-49.38a1.79,1.79,0,0,1,2.15,2.87L39.17,264.32A1.76,1.76,0,0,1,38.1,264.67Z"/><path class="cls-1" d="M20.31,277.85a1.79,1.79,0,0,1-1.11-3.2l8.62-6.78A1.79,1.79,0,0,1,30,270.69l-8.62,6.77A1.74,1.74,0,0,1,20.31,277.85Z"/><path class="cls-1" d="M109.25,346a1.79,1.79,0,0,1-1.11-3.2l8.62-6.78a1.79,1.79,0,0,1,2.21,2.82l-8.62,6.77A1.78,1.78,0,0,1,109.25,346Z"/><path class="cls-1" d="M125.67,333a1.79,1.79,0,0,1-1.08-3.22l49.59-37.19a1.79,1.79,0,1,1,2.14,2.86L126.74,332.6A1.79,1.79,0,0,1,125.67,333Z"/><path class="cls-1" d="M52.39,330.09a1.79,1.79,0,0,1-1.07-3.22l49.58-37.19a1.79,1.79,0,1,1,2.15,2.86L53.47,329.73A1.82,1.82,0,0,1,52.39,330.09Z"/><path class="cls-1" d="M16,329.66a1.79,1.79,0,0,1-1.07-3.22l49.58-37.19a1.79,1.79,0,1,1,2.15,2.86L17.08,329.3A1.77,1.77,0,0,1,16,329.66Z"/></svg>